<svg width="250" height="204" viewBox="0 0 250 204" fill="none" xmlns="http://www.w3.org/2000/svg">
<g clip-path="url(#clip0_717_2029)">
<path d="M200.758 21.1673L168.561 65.7933L149.621 23.4164L132.457 42.5925L116.004 0.333984L88.0682 57.0338L58.5937 14.6569L0 141.314L69.3655 112.432L131.392 203.696L193.537 122.493L250 151.257L200.758 21.1673Z" fill="black"/>
<path d="M201.705 34.543L242.898 143.444L195.432 119.297L201.705 34.543Z" fill="url(#paint0_linear_717_2029)"/>
<path d="M198.154 31.4663L191.762 118.706L191.525 118.943L170.455 69.9369L171.757 68.043L198.154 31.4663Z" fill="url(#paint1_linear_717_2029)"/>
<path d="M165.958 69.3453L188.803 122.494L134.353 193.635L150.451 34.6626L165.129 67.4514L165.958 69.3453Z" fill="url(#paint2_linear_717_2029)"/>
<path d="M146.898 32.4121L130.326 195.409L72.6797 110.537L131.155 49.6943V49.8127L132.22 48.629L133.996 46.8534L133.878 46.735L135.298 45.1962L146.898 32.4121Z" fill="url(#paint3_linear_717_2029)"/>
<path d="M129.735 45.7888L120.384 55.4953L118.135 16.0776L129.025 43.8949L129.735 45.7888Z" fill="url(#paint4_linear_717_2029)"/>
<path d="M114.11 12.9995L116.714 59.2826L100.852 75.7362L90.5537 60.4664L91.5007 58.6908L114.11 12.9995Z" fill="url(#paint5_linear_717_2029)"/>
<path d="M88.5421 64.4911L98.1302 78.5773L70.6681 107.105L61.6719 26.0205L84.7543 59.2828L88.5421 64.4911Z" fill="url(#paint6_linear_717_2029)"/>
<path d="M57.8849 25.4292L67.1179 109.236L7.57715 134.094L57.8849 25.4292Z" fill="url(#paint7_linear_717_2029)"/>
</g>
<defs>
<linearGradient id="paint0_linear_717_2029" x1="195.432" y1="88.9935" x2="242.898" y2="88.9935" gradientUnits="userSpaceOnUse">
<stop stop-color="#F58420"/>
<stop offset="0.06" stop-color="#F58420"/>
<stop offset="1" stop-color="#FCB319"/>
</linearGradient>
<linearGradient id="paint1_linear_717_2029" x1="170.455" y1="75.2047" x2="198.154" y2="75.2047" gradientUnits="userSpaceOnUse">
<stop stop-color="#F58420"/>
<stop offset="0.06" stop-color="#F58420"/>
<stop offset="1" stop-color="#FCB319"/>
</linearGradient>
<linearGradient id="paint2_linear_717_2029" x1="134.353" y1="114.149" x2="188.803" y2="114.149" gradientUnits="userSpaceOnUse">
<stop stop-color="#F58420"/>
<stop offset="0.06" stop-color="#F58420"/>
<stop offset="1" stop-color="#FCB319"/>
</linearGradient>
<linearGradient id="paint3_linear_717_2029" x1="72.6797" y1="113.911" x2="146.898" y2="113.911" gradientUnits="userSpaceOnUse">
<stop stop-color="#F58420"/>
<stop offset="0.06" stop-color="#F58420"/>
<stop offset="1" stop-color="#FCB319"/>
</linearGradient>
<linearGradient id="paint4_linear_717_2029" x1="118.135" y1="35.7865" x2="129.735" y2="35.7865" gradientUnits="userSpaceOnUse">
<stop stop-color="#F58420"/>
<stop offset="0.06" stop-color="#F58420"/>
<stop offset="1" stop-color="#FCB319"/>
</linearGradient>
<linearGradient id="paint5_linear_717_2029" x1="90.5537" y1="44.3679" x2="116.714" y2="44.3679" gradientUnits="userSpaceOnUse">
<stop stop-color="#F58420"/>
<stop offset="0.06" stop-color="#F58420"/>
<stop offset="1" stop-color="#FCB319"/>
</linearGradient>
<linearGradient id="paint6_linear_717_2029" x1="61.6719" y1="66.5628" x2="98.1302" y2="66.5628" gradientUnits="userSpaceOnUse">
<stop stop-color="#F58420"/>
<stop offset="0.06" stop-color="#F58420"/>
<stop offset="1" stop-color="#FCB319"/>
</linearGradient>
<linearGradient id="paint7_linear_717_2029" x1="7.57715" y1="79.7616" x2="67.1179" y2="79.7616" gradientUnits="userSpaceOnUse">
<stop stop-color="#F58420"/>
<stop offset="0.06" stop-color="#F58420"/>
<stop offset="1" stop-color="#FCB319"/>
</linearGradient>
<clipPath id="clip0_717_2029">
<rect width="250" height="204" fill="white"/>
</clipPath>
</defs>
</svg>
