<svg width="250" height="204" viewBox="0 0 250 204" fill="none" xmlns="http://www.w3.org/2000/svg">
<path d="M200.758 21.1673L168.561 65.7933L149.621 23.4164L132.457 42.5925L116.004 0.333984L88.0682 57.0338L58.5937 14.6569L0 141.314L69.3655 112.432L131.392 203.696L193.537 122.493L250 151.257L200.758 21.1673Z" fill="black"/>
<path d="M201.705 34.543L242.898 143.444L195.432 119.297L201.705 34.543Z" fill="url(#paint0_linear_7915_9008)"/>
<path d="M198.154 31.4663L191.762 118.706L191.525 118.943L170.455 69.9369L171.757 68.043L198.154 31.4663Z" fill="url(#paint1_linear_7915_9008)"/>
<path d="M165.958 69.3453L188.803 122.494L134.353 193.635L150.451 34.6626L165.129 67.4514L165.958 69.3453Z" fill="url(#paint2_linear_7915_9008)"/>
<path d="M146.898 32.4121L130.326 195.409L72.6797 110.537L131.155 49.6943V49.8127L132.22 48.629L133.996 46.8534L133.878 46.735L135.298 45.1962L146.898 32.4121Z" fill="url(#paint3_linear_7915_9008)"/>
<path d="M129.735 45.7888L120.384 55.4953L118.135 16.0776L129.025 43.8949L129.735 45.7888Z" fill="url(#paint4_linear_7915_9008)"/>
<path d="M114.11 12.9995L116.714 59.2826L100.852 75.7362L90.5537 60.4664L91.5007 58.6908L114.11 12.9995Z" fill="url(#paint5_linear_7915_9008)"/>
<path d="M88.5421 64.4911L98.1302 78.5773L70.6681 107.105L61.6719 26.0205L84.7543 59.2828L88.5421 64.4911Z" fill="url(#paint6_linear_7915_9008)"/>
<path d="M57.8849 25.4292L67.1179 109.236L7.57715 134.094L57.8849 25.4292Z" fill="url(#paint7_linear_7915_9008)"/>
<defs>
<linearGradient id="paint0_linear_7915_9008" x1="197.846" y1="88.9937" x2="240.791" y2="88.9937" gradientUnits="userSpaceOnUse">
<stop offset="0.12" stop-color="#2DF6A7"/>
<stop offset="0.85" stop-color="#2EB8EC"/>
</linearGradient>
<linearGradient id="paint1_linear_7915_9008" x1="171.864" y1="75.2045" x2="196.923" y2="75.2045" gradientUnits="userSpaceOnUse">
<stop offset="0.12" stop-color="#2DF6A7"/>
<stop offset="0.85" stop-color="#2EB8EC"/>
</linearGradient>
<linearGradient id="paint2_linear_7915_9008" x1="137.122" y1="114.149" x2="186.389" y2="114.149" gradientUnits="userSpaceOnUse">
<stop offset="0.12" stop-color="#2DF6A7"/>
<stop offset="0.85" stop-color="#2EB8EC"/>
</linearGradient>
<linearGradient id="paint3_linear_7915_9008" x1="76.4557" y1="113.911" x2="143.608" y2="113.911" gradientUnits="userSpaceOnUse">
<stop offset="0.12" stop-color="#2DF6A7"/>
<stop offset="0.85" stop-color="#2EB8EC"/>
</linearGradient>
<linearGradient id="paint4_linear_7915_9008" x1="118.727" y1="35.7864" x2="129.214" y2="35.7864" gradientUnits="userSpaceOnUse">
<stop offset="0.12" stop-color="#2DF6A7"/>
<stop offset="0.85" stop-color="#2EB8EC"/>
</linearGradient>
<linearGradient id="paint5_linear_7915_9008" x1="91.8795" y1="44.3679" x2="115.554" y2="44.3679" gradientUnits="userSpaceOnUse">
<stop offset="0.12" stop-color="#2DF6A7"/>
<stop offset="0.85" stop-color="#2EB8EC"/>
</linearGradient>
<linearGradient id="paint6_linear_7915_9008" x1="63.5303" y1="66.5626" x2="96.5085" y2="66.5626" gradientUnits="userSpaceOnUse">
<stop offset="0.12" stop-color="#2DF6A7"/>
<stop offset="0.85" stop-color="#2EB8EC"/>
</linearGradient>
<linearGradient id="paint7_linear_7915_9008" x1="10.6075" y1="79.7616" x2="64.4782" y2="79.7616" gradientUnits="userSpaceOnUse">
<stop offset="0.12" stop-color="#2DF6A7"/>
<stop offset="0.85" stop-color="#2EB8EC"/>
</linearGradient>
</defs>
</svg>
