<svg width="94" height="40" viewBox="0 0 94 40" fill="none" xmlns="http://www.w3.org/2000/svg">
<path d="M53.5423 19.5825H51.0339V29.0244H47.5339V19.5825H45.7256V16.5557H47.5339V15.3779C47.5339 12.3274 49.42 10.761 52.2861 10.761C52.73 10.7648 53.172 10.8174 53.6045 10.918V14.4514C53.2272 14.2986 52.8248 14.2187 52.4183 14.2158C52.2347 14.2011 52.0501 14.2268 51.8771 14.2909C51.7043 14.3551 51.5472 14.4563 51.4168 14.5877C51.2863 14.719 51.1856 14.8773 51.1215 15.0517C51.0574 15.226 51.0315 15.4123 51.0456 15.5977V16.536H53.5539L53.5423 19.5825ZM58.8117 29.0244H55.2728V11.0279H58.8117V29.0244Z" fill="white"/>
<path d="M66.6674 15.7744C67.9944 15.7721 69.2923 16.1674 70.3966 16.9102C71.5009 17.653 72.362 18.71 72.8709 19.9472C73.3798 21.1844 73.5136 22.5463 73.2553 23.8603C72.9969 25.1743 72.3582 26.3814 71.4198 27.3287C70.4815 28.2759 69.2858 28.9208 67.9842 29.1815C66.6826 29.4424 65.3336 29.3073 64.108 28.7935C62.8825 28.2798 61.8355 27.4105 61.0997 26.2956C60.3639 25.1808 59.9723 23.8706 59.9746 22.531C59.9637 21.6407 60.1293 20.757 60.4618 19.9323C60.7943 19.1076 61.2869 18.3584 61.9105 17.7287C62.5342 17.0991 63.2763 16.6018 64.0933 16.2662C64.9103 15.9306 65.7854 15.7634 66.6674 15.7744ZM66.6674 25.8444C68.4757 25.8444 69.7786 24.329 69.7786 22.531C69.798 22.1064 69.732 21.6824 69.5843 21.2844C69.4367 20.8864 69.2106 20.5228 68.9198 20.2156C68.6289 19.9084 68.2794 19.664 67.8922 19.4972C67.5051 19.3303 67.0884 19.2445 66.6674 19.245C65.82 19.2745 65.0172 19.635 64.428 20.2507C63.8389 20.8662 63.5097 21.6887 63.5097 22.5447C63.5097 23.4007 63.8389 24.2232 64.428 24.8387C65.0172 25.4544 65.82 25.815 66.6674 25.8444Z" fill="white"/>
<path d="M77.054 16.0374L79.3296 24.6744L81.6044 17.8119L80.9822 16.0413H84.4822L87.4807 24.6783L89.7007 16.0413H93.3333L89.5103 29.0282H85.8392L83.2807 21.9066L80.8888 29.0243H77.194L73.3948 16.0374H77.054Z" fill="white"/>
<path d="M19.4444 39.2593C30.1833 39.2593 38.8889 30.4707 38.8889 19.6296C38.8889 8.78852 30.1833 0 19.4444 0C8.70556 0 0 8.78852 0 19.6296C0 30.4707 8.70556 39.2593 19.4444 39.2593Z" fill="#00EF8B"/>
<path d="M27.9767 16.5596H22.4856V22.103H27.9767V16.5596Z" fill="white"/>
<path d="M16.9986 24.1798C16.9986 24.5913 16.8778 24.9936 16.6512 25.3358C16.4248 25.6779 16.1029 25.9446 15.7263 26.1021C15.3496 26.2596 14.9352 26.3008 14.5354 26.2205C14.1356 26.1402 13.7683 25.9421 13.4801 25.6511C13.1918 25.3601 12.9955 24.9893 12.916 24.5857C12.8365 24.1821 12.8773 23.7637 13.0333 23.3835C13.1893 23.0033 13.4535 22.6783 13.7924 22.4497C14.1314 22.2211 14.5298 22.0991 14.9375 22.0991H16.9986V16.5596H14.9375C13.4446 16.5596 11.9852 17.0065 10.7439 17.8438C9.50257 18.6811 8.53509 19.8712 7.96376 21.2636C7.39243 22.656 7.24295 24.1882 7.5342 25.6664C7.82546 27.1446 8.54435 28.5024 9.60005 29.5681C10.6557 30.6338 12.0006 31.3596 13.4649 31.6536C14.9291 31.9476 16.4469 31.7967 17.8261 31.2199C19.2054 30.6432 20.3843 29.6665 21.2137 28.4133C22.0432 27.1602 22.4858 25.6869 22.4858 24.1798V22.0991H16.9986V24.1798Z" fill="white"/>
<path d="M24.5468 13.7878H30.7224V8.24438H24.5468C22.5455 8.24646 20.6268 9.04994 19.2116 10.4786C17.7965 11.9072 17.0005 13.8442 16.9985 15.8646V16.5595H22.4857V15.8646C22.4868 15.3134 22.7044 14.7852 23.0908 14.3958C23.4772 14.0065 24.0008 13.7878 24.5468 13.7878Z" fill="white"/>
<path d="M16.9985 22.0991H22.4857V16.5596H16.9985V22.0991Z" fill="#00EF8B"/>
</svg>
