<svg width="130" height="136" viewBox="0 0 130 136" fill="none" xmlns="http://www.w3.org/2000/svg"><path d="M64.768 0h-.018C33.824.016 6.466 20.889 6.466 46.543c0 10.095 7.92 19.085 18.107 19.953-5.984-9.86-5.98-23.44 1.479-35.43 3.79-6.115 8.881-11.063 14.412-15.128 1.316-.959 2.904.888 1.737 2.036-8.979 8.833-16.103 20.862-14.472 33.546.483 6.543 3.61 11.692 8.199 15.063H49.42c-2.857-5.568-4.261-11.921-4.353-18.221-.016-5.783 1.678-11.464 3.58-16.871 2.01-5.31 4.752-10.403 8.545-14.636a1.23 1.23 0 0 1 1.733-.095 1.23 1.23 0 0 1 .194 1.61c-8.492 13.518-10.928 36.094.495 48.213H69.92c11.412-12.095 8.99-34.701.496-48.213-.856-1.222.93-2.65 1.927-1.515 7.384 8.641 11.648 20.19 12.125 31.505-.093 6.326-1.501 12.662-4.361 18.223h13.65c.171-.128.355-.239.52-.37 9.34-7.406 9.471-22.15 4.456-32.573-2.666-5.737-6.722-10.98-11.398-15.666-1.182-1.098.464-3.036 1.737-2.036 11.423 8.174 20.828 21.224 20.172 36.109-.1 5.455-1.628 10.33-4.184 14.444 10.141-.916 18.011-9.885 18.011-19.948C123.072 20.888 95.713.018 64.787 0h-.02ZM42.112 81.058c8.034 13.797 4.244 34.456-10.407 42.233a26.42 26.42 0 0 1-15.621 2.941 2.574 2.574 0 0 0-.724 5.098c29.586 4.338 46.474-29.459 33.405-53.847-.795-1.445-2.023-2.048-3.239-2.048-2.53 0-5.009 2.604-3.414 5.623Zm38.658-3.584c-9.282 17.232-3.76 42.069 14.43 50.933 5.853 2.9 12.569 3.931 18.969 2.923a2.58 2.58 0 0 0 2.156-2.858 2.577 2.577 0 0 0-2.879-2.24 26.422 26.422 0 0 1-15.622-2.941c-14.65-7.775-18.44-28.437-10.407-42.233 1.59-3.034-.88-5.62-3.407-5.622-1.216 0-2.444.6-3.24 2.038ZM60.99 79.27l1.028 54.068c.123 3.552 5.378 3.526 5.492 0l1.031-54.068c-.024-2.539-1.897-3.804-3.772-3.804-1.88 0-3.76 1.27-3.78 3.804Zm39.894-2.646c-6.976 6.786-9.166 18.166-4.46 26.802 8.468 15.852 34.189 12.957 32.988-6.692a1.275 1.275 0 0 0-.139-.423c-.349-1.408-1.26-2.668-2.651-3.385a5.205 5.205 0 0 0-4.762 9.257c1.141.588 2.393.688 3.553.419-3.464 6.488-12.697 8.298-19.079 3.104-7.577-5.779-6.232-17.496-.062-23.788 2.517-2.759.062-6.384-2.816-6.386-.86 0-1.758.324-2.572 1.092Zm-77.639 5.279c8.333 8.448 6.652 24.085-6.23 26.612-5.195 1.233-10.406-1.507-12.851-5.903 1.146.256 2.38.151 3.506-.429a5.205 5.205 0 0 0-4.764-9.257C1.5 93.65.586 94.932.246 96.36c-.054.119-.11.238-.129.374-.8 5.973 2.556 12.477 8.33 15.268 8.86 4.389 20.083-.038 24.66-8.576 4.705-8.636 2.514-20.016-4.462-26.802-.81-.766-1.705-1.09-2.565-1.09-2.872 0-5.339 3.605-2.835 6.369Z" fill="url(#a)"/><defs><linearGradient id="a" x1="0" y1="67.996" x2="129.453" y2="67.996" gradientUnits="userSpaceOnUse"><stop stop-color="#F58420"/><stop offset=".063" stop-color="#F58420"/><stop offset="1" stop-color="#FCB319"/></linearGradient></defs></svg>
