<svg width="300" height="300" viewBox="0 0 300 300" fill="none" xmlns="http://www.w3.org/2000/svg">
<circle cx="150" cy="150" r="150" fill="url(#paint0_linear_866_1820)"/>
<g clip-path="url(#clip0_866_1820)">
<path d="M150.138 44H150.11C101.818 44.0249 59.0971 76.5623 59.0971 116.552C59.0971 132.289 71.4644 146.302 87.3718 147.656C78.0276 132.286 78.0338 111.117 89.6813 92.4264C95.5996 82.8942 103.549 75.1811 112.186 68.8445C114.241 67.3496 116.721 70.2288 114.899 72.0183C100.878 85.7874 89.7532 104.538 92.3 124.311C93.0543 134.51 97.9372 142.536 105.103 147.791H126.171C121.71 139.112 119.518 129.208 119.374 119.388C119.349 110.373 121.994 101.517 124.964 93.0889C128.103 84.8116 132.385 76.8725 138.308 70.274C138.647 69.8971 139.123 69.67 139.63 69.6422C140.137 69.6144 140.635 69.7884 141.014 70.1259C141.361 70.4364 141.583 70.8621 141.638 71.3238C141.694 71.7855 141.58 72.2517 141.317 72.6356C128.056 93.7078 124.252 128.9 142.09 147.791H158.183C176.003 128.937 172.221 93.6984 158.957 72.6356C157.621 70.7307 160.41 68.5047 161.967 70.274C173.497 83.7438 180.155 101.747 180.9 119.385C180.755 129.246 178.556 139.123 174.09 147.791H195.405C195.672 147.592 195.96 147.419 196.217 147.214C210.802 135.67 211.007 112.686 203.176 96.4388C199.012 87.4959 192.679 79.3229 185.377 72.0183C183.531 70.3067 186.102 67.2857 188.089 68.8445C205.927 81.5864 220.613 101.929 219.589 125.132C219.433 133.635 217.047 141.235 213.055 147.648C228.891 146.22 241.18 132.239 241.18 116.552C241.182 76.5607 198.46 44.0281 150.168 44H150.138ZM114.76 170.355C127.305 191.862 121.387 224.066 98.5087 236.189C91.042 240.18 82.5255 241.781 74.1159 240.773C73.0603 240.624 71.9883 240.899 71.1358 241.538C70.2834 242.178 69.7202 243.129 69.5703 244.183C69.4204 245.236 69.696 246.306 70.3364 247.157C70.9769 248.008 71.9297 248.571 72.9854 248.72C119.185 255.482 145.556 202.799 125.149 164.782C123.907 162.53 121.99 161.59 120.091 161.59C116.14 161.59 112.269 165.649 114.76 170.355ZM175.126 164.768C160.631 191.63 169.254 230.346 197.659 244.164C206.798 248.684 217.286 250.292 227.279 248.72C228.309 248.557 229.235 248.001 229.863 247.171C230.491 246.34 230.771 245.298 230.646 244.265C230.581 243.741 230.413 243.235 230.152 242.776C229.891 242.316 229.541 241.913 229.124 241.589C228.706 241.264 228.229 241.025 227.718 240.885C227.208 240.746 226.675 240.708 226.15 240.773C217.74 241.781 209.223 240.181 201.756 236.189C178.88 224.069 172.961 191.861 185.505 170.355C187.988 165.626 184.131 161.595 180.185 161.591C178.286 161.591 176.369 162.527 175.126 164.768ZM144.238 167.568L145.844 251.85C146.036 257.387 154.242 257.347 154.42 251.85L156.03 167.568C155.992 163.61 153.067 161.638 150.139 161.638C147.204 161.638 144.268 163.618 144.237 167.568H144.238ZM206.534 163.443C195.641 174.021 192.221 191.761 199.57 205.223C212.793 229.933 252.957 225.421 251.082 194.791C251.049 194.56 250.975 194.337 250.865 194.132C250.32 191.937 248.897 189.973 246.725 188.855C245.776 188.368 244.74 188.072 243.676 187.984C242.613 187.896 241.542 188.019 240.526 188.344C239.509 188.669 238.567 189.191 237.753 189.88C236.938 190.569 236.268 191.411 235.78 192.359C235.291 193.306 234.995 194.34 234.907 195.402C234.819 196.464 234.942 197.533 235.268 198.548C235.593 199.562 236.116 200.503 236.806 201.316C237.496 202.129 238.34 202.798 239.289 203.285C241.071 204.202 243.026 204.358 244.837 203.938C239.428 214.052 225.011 216.874 215.045 208.777C203.213 199.769 205.313 181.504 214.948 171.696C218.878 167.395 215.045 161.744 210.551 161.741C209.208 161.741 207.805 162.246 206.534 163.443ZM85.2981 171.672C98.3104 184.841 95.6855 209.217 75.5697 213.156C67.4575 215.078 59.3204 210.807 55.5024 203.954C57.2919 204.353 59.2189 204.189 60.9771 203.285C61.9263 202.798 62.7699 202.128 63.4599 201.315C64.1499 200.502 64.6726 199.561 64.9984 198.546C65.3241 197.532 65.4465 196.463 65.3584 195.401C65.2703 194.339 64.9736 193.305 64.4851 192.357C63.9967 191.41 63.3261 190.567 62.5116 189.879C61.6971 189.19 60.7546 188.668 59.7381 188.343C57.6851 187.686 55.4549 187.87 53.538 188.855C51.3425 189.984 49.9152 191.982 49.3843 194.208C49.3 194.394 49.2125 194.579 49.1828 194.791C47.9336 204.102 53.1741 214.241 62.1905 218.591C76.0257 225.433 93.5508 218.532 100.698 205.223C108.045 191.761 104.624 174.021 93.7304 163.443C92.4656 162.249 91.068 161.744 89.7251 161.744C85.2403 161.744 81.388 167.364 85.2981 171.672Z" fill="white"/>
</g>
<defs>
<linearGradient id="paint0_linear_866_1820" x1="0" y1="150" x2="300" y2="150" gradientUnits="userSpaceOnUse">
<stop stop-color="#F58420"/>
<stop offset="0.06" stop-color="#F58420"/>
<stop offset="1" stop-color="#FCB319"/>
</linearGradient>
<clipPath id="clip0_866_1820">
<rect width="203" height="212" fill="white" transform="translate(49 44)"/>
</clipPath>
</defs>
</svg>
