<svg width="800" height="803" viewBox="0 0 800 803" fill="none" xmlns="http://www.w3.org/2000/svg">
<mask id="mask0_669_2898" style="mask-type:alpha" maskUnits="userSpaceOnUse" x="12" y="419" width="762" height="438">
<path d="M395.349 612.607L750.51 419.993L774 579.721L695.075 815.086L232.801 856.898L12 703.276L74.9519 435.026L395.349 612.607Z" fill="url(#paint0_linear_669_2898)"/>
</mask>
<g mask="url(#mask0_669_2898)">
<path d="M273.505 507.403C314.79 578.415 295.314 684.747 220.026 724.775C195.454 737.954 167.427 743.239 139.753 739.912C136.279 739.418 132.751 740.326 129.946 742.437C127.14 744.548 125.287 747.689 124.794 751.168C124.3 754.648 125.207 758.181 127.315 760.991C129.423 763.801 132.558 765.657 136.032 766.151C288.068 788.479 374.852 614.527 307.693 489.002C303.608 481.565 297.298 478.461 291.049 478.461C278.048 478.461 265.309 491.864 273.505 507.403ZM472.16 488.956C424.462 577.649 452.838 705.484 546.313 751.107C576.39 766.033 610.902 771.339 643.79 766.151C647.179 765.611 650.226 763.777 652.292 761.034C654.358 758.291 655.282 754.852 654.87 751.441C654.656 749.71 654.103 748.039 653.243 746.523C652.383 745.006 651.234 743.674 649.86 742.604C648.485 741.533 646.914 740.744 645.235 740.282C643.556 739.82 641.803 739.694 640.075 739.912C612.399 743.24 584.371 737.954 559.797 724.775C484.514 684.757 465.038 578.41 506.318 507.403C514.488 491.787 501.796 478.477 488.81 478.466C482.561 478.466 476.251 481.555 472.16 488.956ZM370.515 498.2L375.798 776.486C376.43 794.768 403.434 794.634 404.02 776.486L409.318 498.2C409.195 485.132 399.57 478.621 389.934 478.621C380.274 478.621 370.613 485.157 370.51 498.2H370.515ZM575.522 484.581C539.674 519.508 528.42 578.081 552.603 622.53C596.118 704.12 728.293 689.219 722.121 588.087C722.012 587.325 721.77 586.588 721.407 585.909C719.613 578.663 714.932 572.177 707.784 568.487C704.66 566.878 701.251 565.9 697.75 565.611C694.25 565.321 690.726 565.725 687.382 566.799C684.037 567.873 680.936 569.597 678.256 571.871C675.576 574.146 673.37 576.926 671.763 580.055C670.157 583.183 669.181 586.598 668.892 590.104C668.603 593.61 669.006 597.139 670.078 600.489C671.151 603.84 672.871 606.945 675.142 609.629C677.413 612.313 680.189 614.523 683.313 616.132C689.176 619.159 695.61 619.674 701.571 618.289C683.77 651.683 636.324 660.999 603.528 634.265C564.592 604.521 571.503 544.214 603.209 511.829C616.144 497.629 603.528 478.971 588.739 478.961C584.319 478.961 579.705 480.628 575.522 484.581ZM176.552 511.752C219.373 555.234 210.735 635.717 144.537 648.723C117.841 655.069 91.0628 640.967 78.4985 618.341C84.3875 619.658 90.7288 619.118 96.5151 616.132C99.6385 614.522 102.415 612.312 104.685 609.627C106.956 606.943 108.676 603.836 109.748 600.486C110.82 597.135 111.223 593.606 110.933 590.099C110.643 586.593 109.667 583.178 108.059 580.05C106.452 576.921 104.245 574.14 101.565 571.866C98.8842 569.592 95.7828 567.869 92.4375 566.795C85.6814 564.627 78.342 565.235 72.0339 568.487C64.8088 572.213 60.1119 578.812 58.3647 586.162C58.0872 586.774 57.7995 587.387 57.7018 588.087C53.5908 618.829 70.8365 652.305 100.508 666.671C146.038 689.261 203.71 666.475 227.23 622.53C251.408 578.081 240.149 519.508 204.301 484.581C200.139 480.638 195.539 478.971 191.12 478.971C176.361 478.971 163.684 497.526 176.552 511.752Z" fill="url(#paint1_linear_669_2898)"/>
</g>
<path d="M661.536 156.668L401.349 2.18644C396.484 -0.705989 390.437 -0.705989 385.572 2.05496L121.835 150.095C116.971 152.856 113.815 157.983 113.815 163.636L110.134 466.158C110.003 471.811 113.026 476.939 117.759 479.831L379.261 636.68C381.759 638.126 384.52 638.915 387.413 638.915C390.042 638.915 392.672 638.258 395.17 636.943L659.038 488.903C664.034 486.142 667.058 480.883 667.058 475.23L669.293 170.342C669.293 164.688 666.4 159.429 661.536 156.668ZM373.871 596.712L141.688 457.481L144.975 192.166L373.871 327.322V596.712ZM389.911 300.106L160.357 164.688L393.066 34.0031L622.357 170.079L389.911 300.106ZM635.504 465.764L405.425 594.871V327.453L637.476 197.688L635.504 465.764Z" fill="url(#paint2_linear_669_2898)"/>
<path d="M284.074 393.19C286.704 393.19 289.333 392.533 291.831 391.218C299.457 386.879 302.086 377.282 297.879 369.788C293.672 362.162 284.074 359.533 276.449 363.74C268.823 367.947 266.194 377.545 270.401 385.17C273.293 390.298 278.552 393.19 284.074 393.19Z" fill="url(#paint3_linear_669_2898)"/>
<path d="M231.353 422.903C233.982 422.903 236.612 422.246 239.11 420.931C246.735 416.724 249.365 406.995 245.158 399.501C240.951 391.875 231.222 389.246 223.727 393.453C216.102 397.66 213.473 407.389 217.68 414.883C220.441 420.011 225.831 422.903 231.353 422.903Z" fill="url(#paint4_linear_669_2898)"/>
<path d="M336.927 363.608C339.556 363.608 342.186 362.951 344.684 361.636C352.309 357.429 354.939 347.7 350.731 340.206C346.524 332.581 336.795 329.951 329.301 334.158C321.676 338.365 319.046 348.094 323.253 355.588C326.014 360.716 331.405 363.608 336.927 363.608Z" fill="url(#paint5_linear_669_2898)"/>
<path d="M178.632 452.485C181.261 452.485 183.891 451.827 186.389 450.513C194.014 446.174 196.644 436.576 192.437 429.082C188.098 421.457 178.5 418.828 171.006 423.035C163.381 427.242 160.751 436.971 164.958 444.465C167.719 449.592 173.11 452.485 178.632 452.485Z" fill="url(#paint6_linear_669_2898)"/>
<path d="M537.687 424.481C540.185 425.927 542.946 426.716 545.707 426.716C551.097 426.716 556.356 423.955 559.249 418.959C563.719 411.465 561.221 401.736 553.727 397.397C546.233 392.927 536.504 395.425 532.034 402.919C527.695 410.413 530.193 420.011 537.687 424.481Z" fill="url(#paint7_linear_669_2898)"/>
<path d="M485.624 393.585C488.122 395.031 490.883 395.82 493.644 395.82C499.034 395.82 504.293 393.059 507.185 388.063C511.655 380.569 509.157 370.84 501.663 366.501C494.169 362.031 484.44 364.529 480.102 372.023C475.763 379.517 478.13 389.114 485.624 393.585Z" fill="url(#paint8_linear_669_2898)"/>
<path d="M433.691 362.688C436.189 364.134 438.95 364.923 441.711 364.923C447.102 364.923 452.361 362.162 455.253 357.166C459.723 349.672 457.225 339.943 449.731 335.604C442.237 331.134 432.508 333.632 428.169 341.126C423.699 348.62 426.197 358.218 433.691 362.688Z" fill="url(#paint9_linear_669_2898)"/>
<path d="M589.751 455.377C592.249 456.824 595.01 457.612 597.771 457.612C603.161 457.612 608.42 454.851 611.313 449.855C615.783 442.361 613.285 432.632 605.791 428.162C598.297 423.692 588.568 426.19 584.229 433.684C579.759 441.178 582.257 450.907 589.751 455.377Z" fill="url(#paint10_linear_669_2898)"/>
<path d="M391.357 181.517C382.68 181.385 375.449 188.354 375.449 197.162C375.317 205.84 382.285 213.071 390.963 213.071C390.963 213.071 391.094 213.071 391.225 213.071C399.903 213.071 406.871 206.103 407.002 197.425C407.002 188.748 400.034 181.517 391.357 181.517Z" fill="url(#paint11_linear_669_2898)"/>
<path d="M392.014 120.907C383.337 120.776 376.106 127.744 376.106 136.421C375.974 145.099 382.942 152.33 391.751 152.461H391.883C400.56 152.461 407.528 145.493 407.66 136.816C407.791 128.27 400.823 121.039 392.014 120.907Z" fill="url(#paint12_linear_669_2898)"/>
<path d="M392.408 91.9832C392.408 91.9832 392.54 91.9832 392.671 91.9832C401.349 91.9832 408.317 85.015 408.448 76.3378C408.58 67.6605 401.612 60.4294 392.803 60.4294C384.125 60.2979 376.894 67.2661 376.894 75.9433C376.763 84.7521 383.731 91.8517 392.408 91.9832Z" fill="url(#paint13_linear_669_2898)"/>
<path d="M390.568 241.995C381.891 241.864 374.66 248.832 374.66 257.509C374.528 266.186 381.496 273.417 390.305 273.549H390.436C399.114 273.549 406.082 266.581 406.213 257.903C406.213 249.226 399.245 242.126 390.568 241.995Z" fill="url(#paint14_linear_669_2898)"/>
<defs>
<linearGradient id="paint0_linear_669_2898" x1="12.0006" y1="366.322" x2="774.002" y2="366.322" gradientUnits="userSpaceOnUse">
<stop stop-color="#F58420"/>
<stop offset="0.063" stop-color="#F58420"/>
<stop offset="1" stop-color="#FCB319"/>
</linearGradient>
<linearGradient id="paint1_linear_669_2898" x1="57.1006" y1="440.173" x2="722.332" y2="440.173" gradientUnits="userSpaceOnUse">
<stop stop-color="#F58420"/>
<stop offset="0.063" stop-color="#F58420"/>
<stop offset="1" stop-color="#FCB319"/>
</linearGradient>
<linearGradient id="paint2_linear_669_2898" x1="110.13" y1="-78.4854" x2="669.294" y2="-78.4854" gradientUnits="userSpaceOnUse">
<stop stop-color="#F58420"/>
<stop offset="0.063" stop-color="#F58420"/>
<stop offset="1" stop-color="#FCB319"/>
</linearGradient>
<linearGradient id="paint3_linear_669_2898" x1="268.402" y1="357.878" x2="299.878" y2="357.878" gradientUnits="userSpaceOnUse">
<stop stop-color="#F58420"/>
<stop offset="0.063" stop-color="#F58420"/>
<stop offset="1" stop-color="#FCB319"/>
</linearGradient>
<linearGradient id="paint4_linear_669_2898" x1="215.681" y1="387.591" x2="247.157" y2="387.591" gradientUnits="userSpaceOnUse">
<stop stop-color="#F58420"/>
<stop offset="0.063" stop-color="#F58420"/>
<stop offset="1" stop-color="#FCB319"/>
</linearGradient>
<linearGradient id="paint5_linear_669_2898" x1="321.254" y1="328.296" x2="352.731" y2="328.296" gradientUnits="userSpaceOnUse">
<stop stop-color="#F58420"/>
<stop offset="0.063" stop-color="#F58420"/>
<stop offset="1" stop-color="#FCB319"/>
</linearGradient>
<linearGradient id="paint6_linear_669_2898" x1="162.959" y1="417.172" x2="194.436" y2="417.172" gradientUnits="userSpaceOnUse">
<stop stop-color="#F58420"/>
<stop offset="0.063" stop-color="#F58420"/>
<stop offset="1" stop-color="#FCB319"/>
</linearGradient>
<linearGradient id="paint7_linear_669_2898" x1="529.906" y1="391.302" x2="561.47" y2="391.302" gradientUnits="userSpaceOnUse">
<stop stop-color="#F58420"/>
<stop offset="0.063" stop-color="#F58420"/>
<stop offset="1" stop-color="#FCB319"/>
</linearGradient>
<linearGradient id="paint8_linear_669_2898" x1="477.939" y1="360.406" x2="509.406" y2="360.406" gradientUnits="userSpaceOnUse">
<stop stop-color="#F58420"/>
<stop offset="0.063" stop-color="#F58420"/>
<stop offset="1" stop-color="#FCB319"/>
</linearGradient>
<linearGradient id="paint9_linear_669_2898" x1="425.949" y1="329.509" x2="457.474" y2="329.509" gradientUnits="userSpaceOnUse">
<stop stop-color="#F58420"/>
<stop offset="0.063" stop-color="#F58420"/>
<stop offset="1" stop-color="#FCB319"/>
</linearGradient>
<linearGradient id="paint10_linear_669_2898" x1="582.008" y1="422.051" x2="613.533" y2="422.051" gradientUnits="userSpaceOnUse">
<stop stop-color="#F58420"/>
<stop offset="0.063" stop-color="#F58420"/>
<stop offset="1" stop-color="#FCB319"/>
</linearGradient>
<linearGradient id="paint11_linear_669_2898" x1="375.447" y1="177.639" x2="407.002" y2="177.639" gradientUnits="userSpaceOnUse">
<stop stop-color="#F58420"/>
<stop offset="0.063" stop-color="#F58420"/>
<stop offset="1" stop-color="#FCB319"/>
</linearGradient>
<linearGradient id="paint12_linear_669_2898" x1="376.104" y1="117.029" x2="407.661" y2="117.029" gradientUnits="userSpaceOnUse">
<stop stop-color="#F58420"/>
<stop offset="0.063" stop-color="#F58420"/>
<stop offset="1" stop-color="#FCB319"/>
</linearGradient>
<linearGradient id="paint13_linear_669_2898" x1="376.893" y1="56.5512" x2="408.45" y2="56.5512" gradientUnits="userSpaceOnUse">
<stop stop-color="#F58420"/>
<stop offset="0.063" stop-color="#F58420"/>
<stop offset="1" stop-color="#FCB319"/>
</linearGradient>
<linearGradient id="paint14_linear_669_2898" x1="374.658" y1="238.117" x2="406.213" y2="238.117" gradientUnits="userSpaceOnUse">
<stop stop-color="#F58420"/>
<stop offset="0.063" stop-color="#F58420"/>
<stop offset="1" stop-color="#FCB319"/>
</linearGradient>
</defs>
</svg>
