<svg xmlns="http://www.w3.org/2000/svg" width="1185" height="1185"><path d="M0 0h1185v1185H0V0Z" fill="#2BE82A"/><path d="m590.5 332.688 2.5.005c14.174.052 28.009.911 42 3.307l2.89.472c47.764 8.026 93.947 30.698 129.258 63.864 2.68 2.503 5.411 4.93 8.164 7.351 4.273 3.846 8.006 7.909 11.688 12.313.81.922 1.62 1.843 2.453 2.793C800.813 435.786 810.556 449.959 819 465l1.292 2.278C835.696 494.686 845.882 524.81 850 556l.506 3.433c1.444 10.368 1.855 20.543 1.807 31.005l-.006 2.507c-.052 14.193-.908 28.045-3.307 42.055l-.472 2.89c-8.026 47.764-30.698 93.947-63.864 129.258-2.503 2.68-4.93 5.411-7.351 8.164-3.846 4.273-7.909 8.006-12.313 11.688-.922.81-1.843 1.62-2.793 2.453-13.014 11.38-27.149 20.967-42.212 29.424a458.835 458.835 0 0 0-5.518 3.17c-24.093 13.535-51.175 22.007-78.331 26.583-2.686.463-5.351 1.014-8.021 1.558-43.185 7.53-91.879.424-132.125-16.188l-2.041-.827c-28.02-11.425-54.04-27.78-76.107-48.509-2.68-2.503-5.411-4.93-8.164-7.351-4.273-3.846-8.006-7.909-11.688-12.313-.81-.922-1.62-1.843-2.453-2.793-11.38-13.014-20.967-27.149-29.424-42.212a458.835 458.835 0 0 0-3.17-5.518C349.12 689.852 340.233 661.86 336 634c-.15-.961-.3-1.923-.453-2.914-3.687-24.575-4.42-50.48-.547-75.086l.39-2.576c2.026-13.043 5.047-25.642 8.94-38.25.548-1.777 1.073-3.56 1.592-5.346C356.706 474.627 377.54 441.373 403 415l2.116-2.199C414.862 402.728 424.647 393.233 436 385l3.445-2.566c8.192-6.044 16.69-11.436 25.555-16.434l2.291-1.3c37.568-21.112 80.147-32.212 123.209-32.012Z" fill="#FEFEFE"/><path d="M560 552h146v74H560v-74Z" fill="#2DE62C"/><path d="M633 552h73v73h-73v-73Z" fill="#010201"/></svg>
