<svg width="50" height="50" viewBox="0 0 50 50" fill="none" xmlns="http://www.w3.org/2000/svg">
<g clip-path="url(#clip0_989_1494)">
<circle cx="25" cy="25" r="25" fill="white"/>
<g clip-path="url(#clip1_989_1494)">
<path d="M36.2524 25.2773C35.8853 23.996 35.8492 21.57 36.2733 20.562C37.2692 18.2005 38.047 17.2305 38.9491 16.6117C41.8448 14.6375 42.3455 13.041 41.2828 10.0873C40.22 7.13361 38.1502 6.34013 35.008 6.01933C32.7452 5.78964 30.4632 6.4844 28.4717 7.5797C27.1338 8.32193 26.3693 8.75662 25.4958 9.41534C23.9371 10.5964 22.0264 11.2276 20.066 11.2092C19.2064 11.1741 18.3454 11.2001 17.4896 11.287C14.896 11.6268 12.5891 13.2783 11.1098 15.4196C9.63052 17.5608 8.90998 20.1482 8.66151 22.7355C8.27926 26.701 9.0323 30.8981 11.4519 34.0816C13.8716 37.2648 18.1413 39.1821 22.0269 38.1817C23.5444 37.7907 25.0849 36.9838 26.5986 37.4034C28.5844 37.9579 29.4005 40.2756 30.9276 41.6537C32.7433 43.29 35.6618 43.4399 37.7795 42.2118C39.8972 40.9836 41.1776 38.5632 41.2733 36.1372C41.3687 33.7112 40.3672 31.2986 38.7886 29.4401C37.7012 28.1703 36.7092 26.8699 36.2524 25.2773ZM34.8209 26.0366C33.569 29.6092 30.4498 31.1866 28.3876 32.2307C26.1648 33.3544 21.8396 35.5413 18.2292 33.5024C14.1698 31.2094 14.1698 25.3399 14.1698 24.2712C14.1673 22.3276 14.6174 20.4098 15.4847 18.6675C15.9128 17.8209 18.7205 12.2438 24.3491 11.9571C29.3642 11.7009 32.5675 15.8448 33.0185 16.456C33.4179 16.9895 36.4952 21.2586 34.8209 26.0271V26.0366Z" fill="#A6ED45"/>
</g>
</g>
<defs>
<clipPath id="clip0_989_1494">
<rect width="50" height="50" fill="white"/>
</clipPath>
<clipPath id="clip1_989_1494">
<rect width="34" height="39" fill="white" transform="translate(8 5)"/>
</clipPath>
</defs>
</svg>
