<svg width="50" height="50" viewBox="0 0 50 50" fill="none" xmlns="http://www.w3.org/2000/svg">
<path d="M46 24.7487V17.0857C46.0017 16.1938 45.759 15.3184 45.2984 14.5552C44.8378 13.7919 44.177 13.1699 43.3879 12.7569L27.7465 4.54956C27.0535 4.1885 26.2838 4 25.5027 4C24.7216 4 23.9519 4.1885 23.2589 4.54956L7.61227 12.7308C6.81884 13.1453 6.15506 13.7713 5.69414 14.5397C5.23323 15.3082 4.99307 16.1892 5.00015 17.0857V29.7737C5.00015 38.7348 22.2088 46 25.4948 46C27.8614 46 37.4584 42.2313 42.6356 36.7667C45.1328 34.1495 43.158 29.7684 39.5428 29.7684H12.2775C11.3658 29.7684 10.4915 29.4056 9.8468 28.7597C9.20214 28.1137 8.83997 27.2377 8.83997 26.3243V19.3469C8.83864 18.4672 9.07865 17.604 9.53379 16.8517C9.98893 16.0993 10.6417 15.4868 11.4207 15.081L23.285 8.87309C23.9676 8.51451 24.7268 8.32719 25.4975 8.32719C26.2682 8.32719 27.0274 8.51451 27.7099 8.87309L39.6003 15.0862C40.3736 15.4907 41.0216 16.0998 41.4738 16.8472C41.926 17.5947 42.1652 18.4519 42.1654 19.326V24.7487C42.1647 25.0014 42.2138 25.2518 42.3098 25.4855C42.4059 25.7191 42.547 25.9315 42.7251 26.1105C42.9032 26.2894 43.1148 26.4314 43.3478 26.5282C43.5807 26.6251 43.8305 26.675 44.0827 26.675C44.3349 26.675 44.5847 26.6251 44.8176 26.5282C45.0506 26.4314 45.2622 26.2894 45.4403 26.1105C45.6184 25.9315 45.7595 25.7191 45.8555 25.4855C45.9516 25.2518 46.0007 25.0014 46 24.7487Z" fill="#F0EFED"/>
<path d="M32.2996 15.3475V14.5706C32.5325 14.4057 32.71 14.1637 32.8057 13.8807C32.9014 13.5977 32.9102 13.2887 32.8307 12.9999C32.7513 12.711 32.5879 12.4576 32.3648 12.2775C32.1417 12.0973 31.8709 12 31.5927 12C31.3144 12 31.0436 12.0973 30.8205 12.2775C30.5974 12.4576 30.434 12.711 30.3546 12.9999C30.2751 13.2887 30.2839 13.5977 30.3796 13.8807C30.4753 14.1637 30.6528 14.4057 30.8857 14.5706V15.2814H19.4065C18.6961 15.2814 17.9926 15.433 17.3363 15.7277C16.6801 16.0224 16.0838 16.4542 15.5817 16.9986C15.0796 17.5431 14.6815 18.1893 14.4101 18.9005C14.1387 19.6117 13.9993 20.3738 14 21.1434V26.9999H31.5672C32.9416 27.0086 34.2674 26.4493 35.2745 25.4361C36.2815 24.4228 36.8942 23.0319 36.9875 21.5464C37.0809 20.061 36.648 18.5929 35.777 17.4412C34.906 16.2894 33.6624 15.5407 32.2996 15.3475ZM23.8771 22.0029C23.796 22.3433 23.6332 22.6545 23.4052 22.9049C23.1772 23.1552 22.8922 23.3358 22.5791 23.4284C22.2659 23.5209 21.9357 23.5222 21.622 23.4319C21.3082 23.3417 21.0221 23.1632 20.7925 22.9146C20.563 22.6659 20.3982 22.3559 20.3149 22.0161C20.2316 21.6762 20.2328 21.3185 20.3182 20.9793C20.4036 20.6401 20.5704 20.3313 20.8015 20.0844C21.0326 19.8375 21.3199 19.6611 21.6342 19.5732C21.9441 19.4882 22.2692 19.4918 22.5775 19.5838C22.8858 19.6757 23.1667 19.8528 23.3929 20.0978C23.619 20.3427 23.7825 20.6471 23.8674 20.981C23.9522 21.315 23.9556 21.6671 23.8771 22.0029ZM28.8818 23.4959C28.5172 23.497 28.1605 23.3808 27.857 23.1621C27.5534 22.9434 27.3167 22.6319 27.1767 22.2673C27.0367 21.9026 26.9998 21.5012 27.0707 21.1138C27.1416 20.7264 27.317 20.3705 27.5748 20.0912C27.8326 19.812 28.1611 19.6219 28.5188 19.5452C28.8764 19.4684 29.247 19.5083 29.5836 19.66C29.9203 19.8116 30.2078 20.0681 30.4097 20.3969C30.6116 20.7257 30.7189 21.1121 30.7179 21.507C30.7179 22.0345 30.5244 22.5404 30.1801 22.9134C29.8358 23.2864 29.3687 23.4959 28.8818 23.4959Z" fill="url(#paint0_linear_878_1839)"/>
<defs>
<linearGradient id="paint0_linear_878_1839" x1="20.0829" y1="16.0968" x2="37.2426" y2="32.7573" gradientUnits="userSpaceOnUse">
<stop stop-color="#41FFC8"/>
<stop offset="1" stop-color="#7B84E9"/>
</linearGradient>
</defs>
</svg>
