<svg width="50" height="50" viewBox="0 0 50 50" fill="none" xmlns="http://www.w3.org/2000/svg">
<g clip-path="url(#clip0_878_1839)">
<circle cx="25" cy="25" r="25" fill="white"/>
<path d="M43 24.7846V18.2163C43.0014 17.4518 42.7943 16.7015 42.4011 16.0473C42.0079 15.393 41.4438 14.8599 40.7701 14.506L27.4177 7.47105C26.8261 7.16157 26.1691 7 25.5023 7C24.8355 7 24.1785 7.16157 23.5868 7.47105L10.23 14.4835C9.55267 14.8388 8.98603 15.3754 8.59256 16.034C8.19909 16.6927 7.99408 17.4479 8.00013 18.2163V29.0917C8.00013 36.7727 22.6904 43 25.4956 43C27.5159 43 35.7084 39.7697 40.1279 35.0857C42.2597 32.8425 40.5739 29.0872 37.4878 29.0872H14.2125C13.4342 29.0872 12.6878 28.7762 12.1375 28.2226C11.5872 27.6689 11.278 26.918 11.278 26.1351V20.1545C11.2769 19.4004 11.4818 18.6606 11.8703 18.0157C12.2588 17.3708 12.8161 16.8458 13.4811 16.498L23.6091 11.1769C24.1918 10.8696 24.8399 10.709 25.4978 10.709C26.1557 10.709 26.8038 10.8696 27.3865 11.1769L37.5368 16.5025C38.197 16.8492 38.7501 17.3712 39.1361 18.0119C39.5222 18.6526 39.7264 19.3874 39.7266 20.1366V24.7846C39.726 25.0012 39.7679 25.2158 39.8499 25.4161C39.9319 25.6164 40.0523 25.7985 40.2044 25.9518C40.3564 26.1052 40.537 26.2269 40.7359 26.3099C40.9348 26.3929 41.148 26.4357 41.3633 26.4357C41.5786 26.4357 41.7918 26.3929 41.9907 26.3099C42.1895 26.2269 42.3701 26.1052 42.5222 25.9518C42.6742 25.7985 42.7947 25.6164 42.8767 25.4161C42.9587 25.2158 43.0006 25.0012 43 24.7846Z" fill="#E9E9E9"/>
<path d="M31.1171 16.9011V16.2279C31.3095 16.0849 31.4561 15.8752 31.5351 15.6299C31.6142 15.3846 31.6215 15.1169 31.5558 14.8665C31.4902 14.6162 31.3552 14.3966 31.1709 14.2405C30.9866 14.0843 30.7629 14 30.5331 14C30.3032 14 30.0795 14.0843 29.8952 14.2405C29.7109 14.3966 29.5759 14.6162 29.5103 14.8665C29.4447 15.1169 29.4519 15.3846 29.531 15.6299C29.61 15.8752 29.7567 16.0849 29.9491 16.2279V16.8438H20.4662C19.8794 16.8438 19.2982 16.9753 18.7561 17.2307C18.214 17.486 17.7214 17.8603 17.3066 18.3322C16.8919 18.804 16.563 19.3641 16.3388 19.9804C16.1146 20.5968 15.9994 21.2573 16 21.9243V26.9999H30.5121C31.6474 27.0074 32.7426 26.5227 33.5746 25.6446C34.4065 24.7665 34.9126 23.5609 34.9897 22.2736C35.0668 20.9862 34.7092 19.7139 33.9897 18.7157C33.2702 17.7175 32.2429 17.0686 31.1171 16.9011ZM24.1594 22.6691C24.0923 22.9642 23.9578 23.2339 23.7695 23.4509C23.5812 23.6678 23.3458 23.8244 23.0871 23.9046C22.8283 23.9848 22.5556 23.9859 22.2964 23.9077C22.0372 23.8295 21.8008 23.6748 21.6112 23.4593C21.4216 23.2438 21.2855 22.9752 21.2167 22.6806C21.1479 22.3861 21.1488 22.0761 21.2194 21.7821C21.29 21.4881 21.4277 21.2205 21.6186 21.0065C21.8095 20.7925 22.0468 20.6396 22.3065 20.5634C22.5626 20.4898 22.8311 20.4929 23.0858 20.5726C23.3404 20.6523 23.5725 20.8058 23.7593 21.0181C23.9461 21.2303 24.0812 21.4941 24.1513 21.7835C24.2214 22.073 24.2242 22.3781 24.1594 22.6691ZM28.2937 23.9631C27.9925 23.9641 27.6978 23.8634 27.4471 23.6738C27.1963 23.4842 27.0007 23.2143 26.8851 22.8983C26.7694 22.5823 26.739 22.2343 26.7975 21.8986C26.8561 21.5629 27.001 21.2544 27.214 21.0124C27.4269 20.7704 27.6983 20.6057 27.9938 20.5391C28.2892 20.4726 28.5953 20.5072 28.8734 20.6386C29.1515 20.7701 29.389 20.9923 29.5558 21.2773C29.7226 21.5623 29.8112 21.8971 29.8104 22.2394C29.8104 22.6966 29.6506 23.135 29.3662 23.4583C29.0817 23.7815 28.6959 23.9631 28.2937 23.9631Z" fill="url(#paint0_linear_878_1839)"/>
</g>
<defs>
<linearGradient id="paint0_linear_878_1839" x1="21.025" y1="17.5505" x2="35.8587" y2="31.2784" gradientUnits="userSpaceOnUse">
<stop stop-color="#41FFC8"/>
<stop offset="1" stop-color="#7B84E9"/>
</linearGradient>
<clipPath id="clip0_878_1839">
<rect width="50" height="50" fill="white"/>
</clipPath>
</defs>
</svg>
