<svg width="50" height="50" viewBox="0 0 50 50" fill="none" xmlns="http://www.w3.org/2000/svg">
<path d="M25.1891 1.08168L13.3067 7.82532C13.1193 7.93422 13 8.13528 13 8.35309V22.1839L13.7837 22.6363L16.8075 20.9189L16.0239 20.4666V10.0537C16.0239 9.83585 16.1431 9.6348 16.3305 9.52589L25.1976 4.49958C25.385 4.39067 25.6235 4.39067 25.8194 4.49958L34.6694 9.52589C34.8569 9.6348 34.9762 9.83585 34.9762 10.0537V20.4666L34.6183 20.676L32.3697 21.9577L29.414 23.6498L27.2249 24.8896L24.7632 26.2887L19.5502 29.2459C19.3543 29.3547 19.2436 29.5558 19.2436 29.7735V36.1906C19.2436 36.4083 19.3629 36.6094 19.5502 36.7182L25.2061 39.9183C25.3935 40.0272 25.632 40.0272 25.8279 39.9183L31.4753 36.7182C31.6626 36.6094 31.782 36.4083 31.782 36.1906V29.4217L30.9983 28.9861L30.8365 28.8855L28.5196 27.5704L29.2606 27.1431L31.7393 25.7525L34.7462 24.0352L37.0119 22.7451L38 22.1839V8.35309C38 8.13528 37.8807 7.93422 37.6934 7.82532L25.8194 1.08168C25.632 0.972774 25.3935 0.972774 25.1976 1.08168H25.1891ZM28.758 31.4825V34.4649C28.758 34.6826 28.6388 34.8837 28.4514 34.9925L25.8109 36.4921C25.6235 36.601 25.385 36.601 25.1891 36.4921L22.5486 34.9925C22.3612 34.8837 22.2419 34.6826 22.2419 34.4649V31.4825C22.2419 31.2648 22.3612 31.0637 22.5486 30.9547L25.1891 29.4553C25.3765 29.3464 25.615 29.3464 25.8109 29.4553L28.4514 30.9547C28.6388 31.0637 28.758 31.2648 28.758 31.4825Z" fill="#111216"/>
<path d="M37.2075 25.8186L34.1997 27.5791L34.9835 28.0257V38.701C34.9835 38.9243 34.8643 39.1304 34.6768 39.2421L25.8238 44.395C25.6363 44.5067 25.3977 44.5067 25.2018 44.395L16.3316 39.2421C16.1442 39.1304 16.0249 38.9243 16.0249 38.701V28.3864C16.0249 28.1632 16.1442 27.9571 16.3401 27.8455L17.7376 27.0382L21.3759 24.9168L23.5572 23.6458L25.517 22.5121L25.5681 22.4864L26.2754 22.074L31.473 19.0423C31.6605 18.9307 31.7798 18.7246 31.7798 18.5014V11.9227C31.7798 11.6994 31.6605 11.4933 31.473 11.3816L25.8238 8.08373C25.6278 7.97209 25.3977 7.97209 25.2018 8.08373L19.544 11.3816C19.3565 11.4933 19.2372 11.6994 19.2372 11.9227V18.8621L20.0211 19.3087L20.0978 19.3602L22.5007 20.76L21.6315 21.2581L19.4502 22.5206L19.2883 22.6237L16.2635 24.3843L16.0249 24.5218L13.8691 25.7671L13 26.2824V40.4616C13 40.685 13.1193 40.8911 13.3067 41.0027L25.1932 47.9163C25.3807 48.0279 25.6193 48.0279 25.8152 47.9163L37.6933 41.0027C37.8806 40.8911 38 40.685 38 40.4616V26.2824L37.2075 25.8186ZM22.245 16.7493V13.6919C22.245 13.4686 22.3643 13.2625 22.5518 13.1508L25.1932 11.6135C25.3807 11.5019 25.6193 11.5019 25.8152 11.6135L28.4566 13.1508C28.6441 13.2625 28.7634 13.4686 28.7634 13.6919V16.7493C28.7634 16.9726 28.6441 17.1788 28.4566 17.2904L25.8152 18.8277C25.6278 18.9393 25.3892 18.9393 25.1932 18.8277L22.5518 17.2904C22.3643 17.1788 22.245 16.9726 22.245 16.7493Z" fill="#FB740A"/>
</svg>
