<svg width="50" height="50" viewBox="0 0 50 50" fill="none" xmlns="http://www.w3.org/2000/svg">
<g clip-path="url(#clip0_878_1839)">
<circle cx="25" cy="25" r="25" fill="white"/>
<path d="M24.7513 6.06702L15.2453 11.6003C15.0954 11.6896 15 11.8546 15 12.0333V23.3817L15.6269 23.7528L18.046 22.3437L17.4191 21.9726V13.4286C17.4191 13.2499 17.5145 13.085 17.6644 12.9956L24.7581 8.87145C24.908 8.78209 25.0988 8.78209 25.2555 8.87145L32.3355 12.9956C32.4855 13.085 32.581 13.2499 32.581 13.4286V21.9726L32.2947 22.1444L30.4958 23.196L28.1312 24.5845L26.3799 25.6017L24.4106 26.7497L20.2402 29.1761C20.0835 29.2654 19.9949 29.4304 19.9949 29.609V34.8743C19.9949 35.053 20.0903 35.2179 20.2402 35.3073L24.7649 37.933C24.9148 38.0223 25.1056 38.0223 25.2623 37.933L29.7803 35.3073C29.9301 35.2179 30.0256 35.053 30.0256 34.8743V29.3204L29.3986 28.9629L29.2692 28.8804L27.4157 27.8014L28.0085 27.4508L29.9915 26.3098L32.3969 24.9007L34.2095 23.8422L35 23.3817V12.0333C35 11.8546 34.9045 11.6896 34.7547 11.6003L25.2555 6.06702C25.1056 5.97766 24.9148 5.97766 24.7581 6.06702H24.7513ZM27.6064 31.0113V33.4584C27.6064 33.637 27.5111 33.802 27.3611 33.8913L25.2487 35.1218C25.0988 35.2111 24.908 35.2111 24.7513 35.1218L22.6388 33.8913C22.4889 33.802 22.3935 33.637 22.3935 33.4584V31.0113C22.3935 30.8326 22.4889 30.6677 22.6388 30.5782L24.7513 29.3479C24.9012 29.2586 25.092 29.2586 25.2487 29.3479L27.3611 30.5782C27.5111 30.6677 27.6064 30.8326 27.6064 31.0113Z" fill="#111216"/>
<path d="M34.366 26.2549L31.9598 27.6633L32.5868 28.0206V36.5608C32.5868 36.7395 32.4914 36.9044 32.3414 36.9936L25.259 41.116C25.109 41.2053 24.9182 41.2053 24.7614 41.116L17.6653 36.9936C17.5153 36.9044 17.4199 36.7395 17.4199 36.5608V28.3091C17.4199 28.1305 17.5153 27.9657 17.6721 27.8764L18.79 27.2305L21.7007 25.5335L23.4458 24.5166L25.0136 23.6096L25.0545 23.5891L25.6203 23.2592L29.7784 20.8339C29.9284 20.7446 30.0239 20.5797 30.0239 20.4011V15.1382C30.0239 14.9595 29.9284 14.7946 29.7784 14.7053L25.259 12.067C25.1022 11.9777 24.9182 11.9777 24.7614 12.067L20.2352 14.7053C20.0852 14.7946 19.9898 14.9595 19.9898 15.1382V20.6897L20.6169 21.0469L20.6782 21.0882L22.6005 22.208L21.9052 22.6065L20.1602 23.6165L20.0307 23.6989L17.6108 25.1074L17.4199 25.2174L15.6953 26.2137L15 26.6259V37.9693C15 38.148 15.0954 38.3129 15.2454 38.4021L24.7546 43.933C24.9045 44.0223 25.0954 44.0223 25.2522 43.933L34.7546 38.4021C34.9045 38.3129 35 38.148 35 37.9693V26.6259L34.366 26.2549ZM22.396 18.9995V16.5535C22.396 16.3749 22.4915 16.21 22.6414 16.1207L24.7546 14.8908C24.9045 14.8015 25.0954 14.8015 25.2522 14.8908L27.3653 16.1207C27.5153 16.21 27.6107 16.3749 27.6107 16.5535V18.9995C27.6107 19.178 27.5153 19.343 27.3653 19.4323L25.2522 20.6621C25.1022 20.7514 24.9114 20.7514 24.7546 20.6621L22.6414 19.4323C22.4915 19.343 22.396 19.178 22.396 18.9995Z" fill="#FB740A"/>
</g>
<defs>
<clipPath id="clip0_878_1839">
<rect width="50" height="50" fill="white"/>
</clipPath>
</defs>
</svg>
