<svg xmlns="http://www.w3.org/2000/svg" width="32" height="32" viewBox="0 0 32 32"><path style="stroke:none;fill-rule:nonzero;fill:#00ef8b;fill-opacity:1" d="M31.938 16.031C31.938 7.25 24.816.13 16.03.13 7.25.129.13 7.25.13 16.03c0 8.785 7.121 15.907 15.902 15.907 8.785 0 15.907-7.122 15.907-15.907Zm0 0"/><path style="stroke:none;fill-rule:nonzero;fill:#fff;fill-opacity:1" d="M18.523 13.543h4.493v4.492h-4.493Zm-4.496 6.176c0 .926-.754 1.683-1.683 1.683a1.683 1.683 0 0 1 0-3.367h1.683v-4.488h-1.683a6.177 6.177 0 0 0 0 12.355 6.177 6.177 0 0 0 6.18-6.175v-1.684h-4.489v1.676Zm6.176-8.422h5.05V6.805h-5.05a6.182 6.182 0 0 0-6.176 6.175v.563h4.489v-.563a1.695 1.695 0 0 1 1.687-1.683Zm0 0"/><path style="stroke:none;fill-rule:nonzero;fill:#16ff99;fill-opacity:1" d="M14.027 18.035h4.496v-4.492h-4.496Zm0 0"/></svg>
