<svg xmlns="http://www.w3.org/2000/svg" width="250" height="251"><path d="M0 0h250v251H0V0Z" fill="#181716"/><path d="M0 0h250v251H0V0Zm43 16v219h164V16H43Z" fill="#FEFEFE"/><path d="M152 52c3.154 1.808 6.096 3.817 9 6l-1 4-4 1 1 3 21-1 1 7h-9l1 2c1.025 5.984 1.096 11.946 1 18h-8c-.338-2.062-.67-4.124-1-6.188l-.563-3.48c-.372-2.836-.523-5.48-.437-8.332h-4l-.367 1.836L154 94h-2v-5l-2-1 1-2-3 1h-1v2l3 1v3c-18.1-.038-18.1-.038-22.438-4.063L125 86h-3l2.25 1.563c2.526 2.238 3.22 3.179 4.563 6.062 1.203 2.333 1.783 3.197 4.214 4.27 2.46.636 2.46.636 5.973 1.105l1 9h7l-1-10h9c1.327 6.968 1.088 13.93 1 21h3c1.98 2.851 3.456 5.899 5 9l2.344-.438c5.984-1.066 11.58-1.796 17.656-1.562.042 2.333.04 4.667 0 7-1 1-1 1-4.063 1.063L177 134l.219 1.871c.63 5.75.874 11.345.781 17.129-6.055.977-6.055.977-8 1l-2-2 .988 2.018c1.228 3.619 1.263 6.918 1.207 10.689l-.008 2.198a1107.04 1107.04 0 0 1-.062 6.907c-.01 1.568-.02 3.135-.027 4.702A2288.68 2288.68 0 0 1 170 190h-2l2 7h-4l-1 7h-5v-2l-7-2v-3l-19-2v8c-2-1-2-1-3-4l-2-1-3 13h-2l.035-2.117.028-2.758.035-2.742c.064-2.4.064-2.4-1.098-4.383l-2 2-2-1v2c-1.083-.03-1.083-.03-2.188-.063-2.761.062-5.113.498-7.812 1.063-7.573 1.213-7.573 1.213-10 0l-1 2-2.688-.563c-3.223-.425-5.184-.079-8.312.563-2.813-.438-2.813-.438-5-1v-3h-2l-1 5h-7l-1 2h-2v-3h-2l-1-2-2 7h-2c.748-7.69 2.102-15.17 3.627-22.74 1.179-6.163 1.61-11.988 1.373-18.26h2c1.592 5.833 2.528 11.489 3.125 17.5l.262 2.492c.21 2.002.412 4.005.613 6.008h5l1 2c2.632-.807 2.632-.807 5-3 .801-3.21.79-6.391.813-9.688l.076-2.705c.059-2.202.095-4.403.111-6.607l2 1 1 19h2l1-19 2 1 1-13h2l.06 2.14c.095 3.203.205 6.407.315 9.61.03 1.111.062 2.222.094 3.367l.117 3.242.095 2.984c.32 2.666.963 4.363 2.319 6.657h4v2h2l1-2 2.375.625L111 193l2-2h6l1 2 1-3h2l1 2 3-1c3.508-8.426 3.644-18.006 4-27h2l.076 2.28c.116 3.385.238 6.771.362 10.157l.119 3.588.127 3.409.11 3.158c-.059 2.358-.059 2.358 1.206 3.408 2.718.032 5.424-.068 8.14-.16 3.023.17 5.131.89 7.86 2.16-2.536-3.87-5.438-6.457-10.063-7.438-2.997-.87-4.063-2.051-5.937-4.562-.449-3.015-.285-5.964-.125-9 .07-1.604.13-3.208.18-4.813l.109-2.144c-.193-2.403-.974-3.967-2.164-6.043-3.61.656-3.61.656-7 2-2.507.285-4.986.511-7.5.688l-2.09.181c-1.8.128-3.606.137-5.41.131l-2-2-2 3h-9l-3-18H83v4l2-1c2.672-.134 5.323-.043 8 0l1 7c-3.215 1.607-6.436 1.057-10 1l.254 1.934.308 2.504.317 2.496L85 164c-1 1-1 1-4.5 1.125C77 165 77 165 76 164a126.484 126.484 0 0 1-.535-5.785l-.264-3.545-.263-3.732-.276-3.745c-.225-3.064-.444-6.128-.662-9.193l15-2-15 1v-2l5-1h-6l-2-27c7.429-1.238 14.315-2.322 21.75-2.625l2.438-.117c1.937-.092 3.874-.176 5.812-.258l2 7 1.625-2.75c2.983-4.444 6.498-6.833 11.75-8L119 100l-2-3-1 2c-3.435.42-5.995.64-8.988-1.266-5.775-4.926-5.775-4.926-6.32-9.09-.233-5.096-.318-8.676 3.058-12.707 3.174-3.277 5.9-4.885 10.5-5.062L117 71l.078-1.758c.397-5.465 1.171-9.01 4.922-13.242 9.065-6.744 19.305-8.01 30-4Z" fill="#ECDB94"/><path d="M90 83h1l1 18 8-1v-8c2.508 1.115 4.244 2.218 6.313 4.063 3.25 2.343 5.739 2.627 9.687 2.937l1-3c3 3.875 3 3.875 3 5l-1.793.297c-5.815 1.1-9.869 2.43-13.457 7.453-1.125 3.376-1.396 6.711-1.75 10.25h-1l-1-15-30 3 1 7.875c.785 6.421 1.206 12.647 1 19.125l9-1c-2 2-2 2-5.125 2.125L74 135v2l3-.438c6.689-.95 13.227-1.838 20-1.562v1c-2.52.339-5.041.671-7.563 1-.704.095-1.408.19-2.134.29-4.477.577-8.79.805-13.303.71l.402 2.895C75.453 148.587 76.388 156.258 77 164h7v-9l10-1-1-7-10 1v-4h12v-5h1l2 23h9l2-4 1.602 1.016c3.135 1.287 5.408 1.032 8.773.734l3.336-.266c3.328-.387 3.328-.387 6.516-1.593C132 157 132 157 135 158c1.06 2.767 1.091 5.324.992 8.258l-.05 2.394a544.59 544.59 0 0 1-.157 4.97l-.043 2.386-.067 2.176L136 180l3 2v2l2.125.25c3.583.935 5.956 2.494 8.875 4.75l1 3-16-2-1 3c-1.01-3.344-1.115-6.375-1.098-9.86l.01-3.378.025-3.512.014-3.559c.012-2.897.028-5.794.049-8.691h-2l.105 2.86c.363 17.192.363 17.192-3.105 24.14-2.613 1.324-2.613 1.324-5 2v-3h-2l-1 4-1-3h-2l-1 3v-2c-2.867.573-3.861.861-6 3v-3h-2l-1 3-1-2-3 1v-2h-2l-1 4-1-3-2 1c-.75-4-1.12-7.767-1.098-11.836l.01-3.223.025-3.316.014-3.387c.012-2.746.028-5.492.049-8.238h-2v14l-2-1-2 18h-2l-1 2-1-21c-.249 5.743-.249 5.743-.478 11.487l-.108 2.185-.095 2.222c-.357 2.355-1.156 4.04-2.319 6.106v-3l-4 3-1-3h-2l-1 3-1-2-2 1-.168-1.709c-.255-2.597-.512-5.194-.77-7.791l-.263-2.688A529.95 529.95 0 0 0 69 169h-2l1 2c.34 6.528-.64 12.54-1.875 18.938l-.527 2.841A457.772 457.772 0 0 1 62 210h2l1-8 2 1v2h2v3h2l1-5 1 3 4-3v3h2l1-5h2l1 3 2 1 1-3 1 2 2-1v2l4-3 1 2c8.68-.573 8.68-.573 17-3v2h2l1-2 2 1 1-3v3h2v-2l5-2c1.286 8.429 1.286 8.429 0 13h2l.148-1.828.227-2.422c.07-.789.14-1.578.21-2.39.43-2.446 1.201-4.208 2.415-6.36l3 1 1 3 1-7c7.39-.147 14.644.292 22 1l-3 1v3l10 1-3 1v2c2.993-1.098 3.846-1.677 5.25-4.625L166 197h4l-1-1.813C168 193 168 193 168 190h2l-.219-1.633c-.89-7.896-.826-15.727-.656-23.66.112-6.577.112-6.577-2.125-12.707l2-2 1 4h8a2705.114 2705.114 0 0 0 1.375 10.625l.383 3.027c.667 5.04 1.595 9.53 3.242 14.348.587 3.194 1.006 6.407 1.438 9.625C186.03 205.619 186.03 205.619 192 218v10H57v-10h-5v-12l-2-1c.084-13.621.18-27.243.288-40.864.05-6.324.096-12.649.134-18.973.037-6.102.083-12.203.136-18.304.019-2.33.034-4.66.045-6.99.017-3.26.046-6.518.078-9.776l.007-2.932c.01-.889.022-1.778.034-2.694l.016-2.335c.295-2.4 1.07-4.044 2.262-6.132l1 6c7.427.103 14.635-.001 22-1v2h3l-1-10h9v-6h3v-4Z" fill="#060606"/><path d="M43 16h164v219H43V16Zm15 8v10h-5v11h-3v161h2v12h5v10h136v-10h5v-12h2V45h-2V34h-5V24H58Z" fill="#C98D2C"/><path d="M92 107h1l2 24h8v-11l1.688 2.313c2.935 3.411 5.031 5.329 9.574 6.042 6.667.378 10.487-1.43 15.738-5.355l2-1c1.79 6.366 2.583 12.543 3.125 19.125l.262 2.918c.404 4.666.724 9.269.613 13.957l8-1v-3c3.796.542 5.472 2.201 8 5-4.12 1.292-7.668 2.263-12 2v2l2.668.402 3.52.536 3.48.527c2.795.449 5.561.956 8.332 1.535.273 17.17.273 17.17-4 22v3l6 3v2l4 1-1.5-1.813C161 193 161 193 161 190h2l-2-10h3v-9h3l-.324-2.738-.363-3.575-.387-3.55C166 158 166 158 167.48 156.082L169 155c.747 4.652 1.12 9.099 1.098 13.809l-.01 3.76-.025 3.869-.014 3.95c-.012 3.204-.028 6.408-.049 9.612h-2l2 7h-4l-1 7h-5v-2l-7-2v-3l-19-2v8c-2-1-2-1-3-4l-2-1-3 13h-2l.035-2.117.028-2.758.035-2.742c.064-2.4.064-2.4-1.098-4.383l-2 2-2-1v2l-2.188-.063c-2.761.062-5.113.498-7.812 1.063-7.573 1.213-7.573 1.213-10 0l-1 2-2.688-.563c-3.223-.425-5.184-.079-8.312.563-2.813-.438-2.813-.438-5-1v-3h-2l-1 5h-7l-1 2h-2v-3h-2l-1-2-2 7h-2c.748-7.69 2.102-15.17 3.627-22.74 1.179-6.163 1.61-11.988 1.373-18.26h2c1.592 5.833 2.528 11.489 3.125 17.5l.262 2.492c.21 2.002.412 4.005.613 6.008h5l1 2c2.632-.807 2.632-.807 5-3 .801-3.21.79-6.391.813-9.688l.076-2.705c.059-2.202.095-4.403.111-6.607l2 1 1 19h2l1-19 2 1 1-13h2l.06 2.14c.095 3.203.205 6.407.315 9.61.03 1.111.062 2.222.094 3.367l.117 3.242.095 2.984c.32 2.666.963 4.363 2.319 6.657h4v2h2l1-2 2.375.625L111 193l2-2h6l1 2 1-3h2l1 2 3-1c3.508-8.426 3.644-18.006 4-27h2l.076 2.28c.116 3.385.238 6.771.362 10.157l.119 3.588.127 3.409.11 3.158c-.059 2.358-.059 2.358 1.206 3.408 2.718.032 5.424-.068 8.14-.16 3.023.17 5.131.89 7.86 2.16-2.536-3.87-5.438-6.457-10.063-7.438-2.997-.87-4.063-2.051-5.937-4.562-.449-3.015-.285-5.964-.125-9 .07-1.604.13-3.208.18-4.813l.109-2.144c-.193-2.403-.974-3.967-2.164-6.043-3.61.656-3.61.656-7 2-2.507.285-4.986.511-7.5.688l-2.09.181c-1.8.128-3.606.137-5.41.131l-2-2-2 3h-9l-3-18H83v4l2-1c2.672-.134 5.323-.043 8 0l1 7c-3.215 1.607-6.436 1.057-10 1l.254 1.934.308 2.504.317 2.496L85 164c-1 1-1 1-4.5 1.125C77 165 77 165 76 164a126.484 126.484 0 0 1-.535-5.785l-.264-3.545-.263-3.732-.276-3.745c-.225-3.064-.444-6.128-.662-9.193l15-2-15 1v-2l8-1-1-10 10-1-1-7H80v-3l12-1v-5Z" fill="#0B0B0A"/><path d="M152 52c3.154 1.808 6.096 3.817 9 6l-1 4-4 1 1 3 21-1 1 7h-9l1 2c1.025 5.984 1.096 11.946 1 18h-8c-.338-2.062-.67-4.124-1-6.188l-.563-3.48c-.372-2.836-.523-5.48-.437-8.332h-4l-.367 1.836L154 94h-2v-5l-2-1 1-2-3 1h-1v2l3 1v3c-18.1-.038-18.1-.038-22.438-4.063L125 86h-3l2.375 1.563c3.25 3.018 3.865 5.106 4.625 9.437-.375 2.938-.375 2.938-1 5l-3-2-1 2h-4c-1.75-2.5-1.75-2.5-3-5l-1 2c-3.435.42-5.995.64-8.988-1.266-5.775-4.926-5.775-4.926-6.32-9.09-.233-5.096-.318-8.676 3.058-12.707 3.174-3.277 5.9-4.885 10.5-5.062L117 71l.078-1.758c.397-5.465 1.171-9.01 4.922-13.242 9.065-6.744 19.305-8.01 30-4Z" fill="#ECDEA0"/><path d="M140 116c3.375.313 3.375.313 7 1 2 3 2 3 2 7h8v-5h2c1.922 2.882 3.464 5.901 5 9l2.344-.438c5.984-1.066 11.58-1.796 17.656-1.562.042 2.333.04 4.667 0 7-1 1-1 1-4.063 1.063L177 134l.219 1.871c.63 5.75.874 11.345.781 17.129-6.055.977-6.055.977-8 1l-2-2 .063 2.313C168 157 168 157 167 160c.087 2.58.229 5.117.438 7.688l.158 2.126c.13 1.73.266 3.458.404 5.186l-1-4h-3v9l-2 1 1 9h-2l1.5 2.375C164 195 164 195 164 197c-1.938-.375-1.938-.375-4-1l-1-2a134.078 134.078 0 0 0-6-3c.613-2.962 1.254-4.38 3-7 .453-2.022.453-2.022.633-4.23l.254-2.432.238-2.525.262-2.561c.212-2.083.413-4.168.613-6.252l-1.906-.148c-5.563-.486-10.714-1.358-16.094-2.852v-2l11-3-7-4v3l-8 1c-1.473-10.746-2.284-21.147-2-32h7l-1-10Z" fill="#EEEDE9"/><path d="M43 16h164v219H43V16Zm1 1v217h162c1.365-12.94 1.365-12.94-1-25h-3l-1 3 3 1 1 2h-3l-1 3 1 2h3v10h-10v-10h5v-12h2l1-115 1 115h1a68159.053 68159.053 0 0 0 .536-55.149c.315-33.784.563-67.566.526-101.351l-.002-2.427c-.01-9.358-.03-18.715-.06-28.073h-1v8l-3.875-.125c-2.144-.117-2.144-.117-4.125.125l-2 2v-9l5.957.195c2.357-.062 2.357-.062 5.043-2.195v-3H44Z" fill="#D9BF9B"/><path d="M44 17h162v3c-3.089 2.06-3.71 2.239-7.188 2.125L195 22v10h5c.054 1.791.093 3.583.125 5.375l.07 3.023C200 43 200 43 198 45V34h-5V24H58v10h-5v11h-3l.003 2.27c.022 18.28.038 36.562.049 54.843.005 8.841.012 17.682.023 26.523.01 7.712.017 15.424.02 23.136 0 4.078.003 8.155.01 12.233.008 3.85.01 7.7.008 11.551 0 1.401.002 2.803.006 4.204.025 9.464-.38 18.81-1.119 28.24h-1V43h2V31h5V21l-11-1v-3Z" fill="#CE932A"/><path d="M87 51c2.365 2.5 4.092 5.138 6 8-.242 6.404-2.514 10.514-7 15l3 2v6l-12 1v4l2-1c2.672-.134 5.323-.043 8 0v7h-9l1 10h-3v-2l-3.688 1c-6.043 1.36-12.145 1.395-18.312 1l-1-1c.012-1.96.11-3.92.25-5.875l.203-3.242C54.067 89.649 54.511 89.015 57 87c5.224-4.3 6-7.869 7-14.25 2.58-13.96 2.58-13.96 7-18.75 3-1.5 3-1.5 6-2l2.563-.625C84.5 50.615 84.5 50.615 87 51Z" fill="#A6A6A6"/><path d="m47.294 19.877 3.103.003 3.549-.004 3.927.01h4.11c3.728 0 7.457.006 11.187.013 3.893.006 7.786.006 11.679.008 7.377.003 14.754.011 22.131.021 8.397.011 16.793.017 25.19.022 17.276.01 34.553.028 51.83.05v1H55v10h-5v12h-2l1 150h1v13h2v12h5a312792605.213 312792605.213 0 0 0-1.465 7.617C55 228 55 228 54 230H44c-.023-27.233-.041-54.466-.052-81.699-.005-12.644-.012-25.287-.023-37.931-.01-11.016-.017-22.032-.02-33.048 0-5.837-.003-11.674-.01-17.51-.007-5.487-.01-10.974-.008-16.461 0-2.02-.002-4.04-.006-6.06-.005-2.746-.004-5.491-.001-8.236l-.01-2.456c.019-6.54.019-6.54 3.424-6.722Z" fill="#E2A837"/><path d="M94 164h2l.06 2.14c.095 3.203.205 6.407.315 9.61.03 1.111.062 2.222.094 3.367l.117 3.242.095 2.984c.32 2.666.963 4.363 2.319 6.657h4v2h2l1-2 2.375.625L111 193l2-2h6l1 2 1-3h2l1 2 3-1c3.508-8.426 3.644-18.006 4-27h2c1.194 26.958 1.194 26.958 1 39-2-1-2-1-3-4l-2-1-3 13h-2l.035-2.117.028-2.758.035-2.742c.064-2.4.064-2.4-1.098-4.383l-2 2-2-1v2c-1.083-.03-1.083-.03-2.188-.063-2.761.062-5.113.498-7.812 1.063-7.573 1.213-7.573 1.213-10 0l-1 2-2.688-.563c-3.223-.425-5.184-.079-8.312.563-2.813-.438-2.813-.438-5-1v-3h-2l-1 5h-7l-1 2h-2v-3h-2l-1-2-2 7h-2c.748-7.69 2.102-15.17 3.627-22.74 1.179-6.163 1.61-11.988 1.373-18.26h2c1.592 5.833 2.528 11.489 3.125 17.5l.262 2.492c.21 2.002.412 4.005.613 6.008h5l1 2c2.632-.807 2.632-.807 5-3 .801-3.21.79-6.391.813-9.688l.076-2.705c.059-2.202.095-4.403.111-6.607l2 1 1 19h2l1-19 2 1 1-13Z" fill="#DCDCDC"/><path d="M154.563 53.469A131.872 131.872 0 0 1 161 58l-1 4-4 1 1 3 21-1 1 7h-9l1 2c1.025 5.984 1.096 11.946 1 18h-8c-.338-2.062-.67-4.124-1-6.188l-.563-3.48c-.372-2.836-.523-5.48-.437-8.332h-4l-.367 2.152-.508 2.785-.492 2.778L156 84l-2 1c-.17-1.562-.336-3.125-.5-4.688l-.281-2.636c-.21-2.573-.256-5.096-.219-7.676l-7-2v-2c-6.237.172-6.237.172-11.563 3.063L133 71c1.583.027 3.167.046 4.75.063l2.672.035c2.36-.09 4.323-.429 6.578-1.098l1 6-6-1-2 4h1c2.001.327 4.001.66 6 1v3l-1.898.586-2.477.789-2.46.773c-2.33.75-2.33.75-4.165 2.852-2.625.125-2.625.125-5 0l-.75-2.438c-.972-2.733-.972-2.733-3.375-3.374L125 82l-.313-2.875c-.372-3.416-.372-3.416-3.687-5.125 1.114-1.02 1.114-1.02 2.25-2.063 2.994-2.968 4.784-6.224 6.75-9.937 7.47-.299 14.63.84 22 2l-2 1v2l3-1-1-5h3v-3c-7.35-2.4-13.165-2.273-20.645-.445-3.813.72-7.484.568-11.355.445 1.837-3.998 3.745-5.954 7.918-7.5 7.66-1.84 16.794-.958 23.644 2.969Z" fill="#E0E0E0"/><path d="M135 152h1v6l8-1v-3c3.796.542 5.472 2.201 8 5-4.12 1.292-7.668 2.263-12 2v2l2.668.402 3.52.536 3.48.527c2.795.449 5.561.956 8.332 1.535.273 17.17.273 17.17-4 22v3l6 3v2l4 1-1.5-1.813C161 193 161 193 161 190h2l-2-10h3v-9h3l-.324-2.738-.363-3.575-.387-3.55C166 158 166 158 167.48 156.082L169 155c.747 4.652 1.12 9.099 1.098 13.809l-.01 3.76-.025 3.869-.014 3.95c-.012 3.204-.028 6.408-.049 9.612h-2l2 7h-4l-1 7h-5v-2l-7-2v-3l-19-2 1-5a398.51 398.51 0 0 1 5.188-.125l2.917-.07c3.023.204 5.163.926 7.895 2.195-2.536-3.87-5.438-6.457-10.063-7.438-2.89-.839-4.063-2.226-5.937-4.562-.454-3.024-.454-3.024-.39-6.516l.038-3.789.102-3.945.055-3.992c.047-3.254.113-6.505.195-9.758Z" fill="#7E7E7E"/><path d="M205 21h1c.033 10.167.052 20.333.063 30.5l.002 2.409c.032 34.261-.244 68.519-.565 102.779l-.036 3.863c-.15 15.817-.304 31.633-.464 47.449h-1l-1-115-1 115h-2v12h-6v9h-23v-1h22v-10h5v-12h2l-.018-2.515c-.148-20.224-.29-40.448-.425-60.673-.065-9.78-.133-19.56-.205-29.341a26325.2 26325.2 0 0 1-.177-25.584c-.03-4.512-.06-9.025-.096-13.537-.033-4.254-.061-8.508-.086-12.762a1894.5 1894.5 0 0 0-.035-4.665c-.072-8.36.055-16.609 1.042-24.923h-5l2-3c1.945-.293 1.945-.293 4.125-.188L205 29v-8Z" fill="#BE8736"/><path d="M51 131h1l.621 3.832.816 4.98.409 2.526.4 2.432.365 2.237c.633 3.617.633 3.617 3.06 6.173 2.965 1.044 5.443 1.013 8.579.945l3.266-.055L72 154l1-7h1l1 6h1l1 13-11 2 .625 4.25c.641 6.132-.378 11.752-1.625 17.75l-2-4-5 1v-2h-4l-1 32h5v11h-1v-10h-5v-12l-2-1 1-74Z" fill="#131313"/><path d="M56 22h138v8h-1v-6H58v10h-5v11h-3l.003 2.27c.022 18.28.038 36.562.049 54.843.005 8.841.012 17.682.023 26.523.01 7.712.017 15.424.02 23.136 0 4.078.003 8.155.01 12.233.008 3.85.01 7.7.008 11.551 0 1.401.002 2.803.006 4.204.025 9.464-.38 18.81-1.119 28.24h-1V43h3V32h5V22Z" fill="#AC6813"/><path d="m101 104 2 7h1c.11 6.737-.299 13.3-1 20h-8l-3-19-12 1v3h10l1 7-9 2v8l-9 1-2-27c10.194-1.699 19.733-3.19 30-3Z" fill="#D9C886"/><path d="M104 135c1.27 9.04 2.35 17.844 2 27h-8l-3-18H83v4l2-1c2.672-.134 5.323-.043 8 0l1 7c-3.215 1.607-6.436 1.057-10 1l.254 1.934.308 2.504.317 2.496L85 164c-1 1-1 1-4.5 1.125C77 165 77 165 76 164a126.484 126.484 0 0 1-.535-5.785l-.264-3.545-.263-3.732-.276-3.745A3517.07 3517.07 0 0 1 74 138c4.25-.504 8.5-1.002 12.75-1.5l3.656-.434 3.516-.41 3.237-.38C100 135 100 135 104 135Z" fill="#C3A255"/><path d="M158 74h4l2 18h4v2h9v1c-7.055 1.204-13.834 2.281-21 2v7h9l1 14-10-4-1-16h-9l1 3c.04 2.333.044 4.667 0 7h-7l-1-9-2.75.188c-3.715-.215-4.696-.549-7.25-3.188-.992-1.727-1.981-3.457-2.918-5.215-1.649-2.72-3.744-4.642-6.082-6.785 3.403 1.059 6.014 2.009 9 4v2c4.335 1.445 8.751 1.39 13.283 1.605 5.515.294 5.515.294 7.717 1.395l-1-3-2-1v-2l-4-1c2.862-1.43 4.934-.6 8 0l1 8h2l.113-1.836c.501-6.383 1.838-12.106 3.887-18.164Z" fill="#151412"/><path d="m141.625 65.938 2.477.027L146 66v2l3.438.438C153 69 153 69 154 70c0 2.152-.004 4.305-.035 6.457.034 2.46.27 4.795.597 7.23.46 3.635.269 6.714-.562 10.313h-2v-5l-2-1 1-2-3 1h-1v2l3 1v3c-18.1-.038-18.1-.038-22.438-4.063L125 86h-3l2 2c-2.321 2.753-3.938 3.483-7.5 3.875l-2.344.305C112 92 112 92 110.277 90.723 108.186 87.902 108.061 85.45 108 82c1.688-2.438 1.688-2.438 4-4h4v5h-2v5h4l-.254-2.992-.308-3.883-.317-3.867C117 74 117 74 118 72c3.063-.625 3.063-.625 6-1v4c.726 3.668.726 3.668 2 7l3 1c1.188 2.063 1.188 2.063 2 4 2.374.25 2.374.25 5 0l1.313-1.438c2.777-2.571 5.99-2.259 9.687-2.562v-3c-4.79-.234-4.79-.234-9 2a56.54 56.54 0 0 1 4-7c2.625-.188 2.625-.188 5 0v-5l-1.672 1.023c-2.831 1.188-4.555 1-7.578.602l-2.703-.336L133 71c2.106-4.663 3.607-5.134 8.625-5.063Z" fill="#AEAEAE"/><path d="m132 135-1 6c-3 1-3 1-6 0-4.686-.439-4.686-.439-8.938 1.188-1.42 2.424-1.34 4.04-1.062 6.812l1 3 9-1-6-1v-6c4.672-1.206 9.215-1.094 14-1 1.867 9.692 1.867 9.692-.2 12.809-5.195 4.24-9.309 4.593-15.808 4.539-4.566-.53-6.048-1.862-8.992-5.348-2.284-3.945-2.402-7.497-2-12 1.963-4.58 5.094-7.07 9-10 6.46-2.154 11.138-.871 17 2Z" fill="#D7B461"/><path d="M158 129a243.963 243.963 0 0 1 1 26l-7 1-1-9h-4v2h-4v4l2 1-1 3-8 1c-1.174-9.037-2.29-17.867-2-27h8v9h6l2-10c5.75-1 5.75-1 8-1Z" fill="#E0C886"/><path d="M147 147h4l1 9 7-1v4l3.438-.063C166 159 166 159 167 160c.237 2.526.422 5.031.563 7.563l.13 2.154c.107 1.76.207 3.522.307 5.283l-1-4h-3v9l-2 1 1 9h-2l1.5 2.375C164 195 164 195 164 197c-1.938-.375-1.938-.375-4-1l-1-2a134.078 134.078 0 0 0-6-3c.613-2.962 1.254-4.38 3-7 .453-2.022.453-2.022.633-4.23l.254-2.432.238-2.525.262-2.561c.212-2.083.413-4.168.613-6.252l-1.906-.148c-5.563-.486-10.714-1.358-16.094-2.852v-2l11-3-4-2.25c-2.25-1.266-2.25-1.266-4-2.75v-4h4v-2Z" fill="#ECECEC"/><path d="M202 69h1c.876 18.163 1.284 36.319 1.563 54.5A20439.773 20439.773 0 0 1 205 151h.999v60l-1-2h-3v3h3v3h-3v5h3v10h-10v-10h5v-12h2V69Z" fill="#E8B746"/><path d="M63 85v3a608.7 608.7 0 0 0 6.313.125l3.55.07c3.3.058 3.3.058 6.137-2.195 2.043-.195 2.043-.195 4.188-.125L87 86v7h-9l1 10h-3v-2l-3.688 1c-6.043 1.36-12.145 1.395-18.312 1l-1-1c.012-1.96.11-3.92.25-5.875l.203-3.242C54.046 89.756 54.516 88.88 57 87c3-2 3-2 6-2Z" fill="#E6E6E6"/><path d="m127 92 2 1 .625 1.938c1.699 2.548 2.593 2.6 5.5 3.312L139 99l1 9h7l-1-10h9c.336 3.396.67 6.791 1 10.188.095.96.19 1.919.29 2.908l.273 2.822.253 2.587c.185 2.508.215 4.981.184 7.495h-8l-2-7h-2l-2-4c-3.793 1.002-6.715 1.81-10 4-2.103-2.103-1.382-6.584-1.523-9.434L131 105l-3-2c-.512-2.602-.512-2.602-.688-5.625l-.199-3.04L127 92Z" fill="#D8BF74"/><path d="M44 141h1l1 11h1l.076 2.256c.622 19.39.622 19.39 1.924 38.744h1v13h2v12h5c-.309 1.626-.622 3.25-.938 4.875l-.527 2.742C55 228 55 228 54 230H44v-89Z" fill="#C88C31"/><path d="M90 83h1l1 18 8-1v-8c2.508 1.115 4.244 2.218 6.313 4.063 3.25 2.343 5.739 2.627 9.687 2.937l1-3c3 3.875 3 3.875 3 5l-1.793.297c-5.815 1.1-9.869 2.43-13.457 7.453-1.125 3.376-1.396 6.711-1.75 10.25h-1l-1-15-3.516.438C76.204 107.007 76.204 107.007 71 106c-2.32-2.023-2.32-2.023-4-4l9-1v2h3l-1-10h9v-6h3v-4Z" fill="#1B1B18"/><path d="M202 209h3c3.73 7.46 1 16.66 1 25H44l1-4 2.624.493c6.092.861 12.251.638 18.39.62l4.259.001c3.838 0 7.676-.006 11.515-.013 4.017-.006 8.034-.006 12.051-.008 7.6-.003 15.2-.01 22.8-.021 8.656-.011 17.311-.017 25.966-.022 17.799-.01 35.597-.028 53.395-.05v-1h9v-10h-3l-1-3 1-2h3l-1-2-3-1 1-3Z" fill="#B67D20"/><path d="m163 126 1 2 2.344-.438c5.984-1.066 11.58-1.796 17.656-1.562.042 2.333.04 4.667 0 7-1 1-1 1-4.063 1.063L177 134l.219 1.871c.63 5.75.874 11.345.781 17.129-6.055.977-6.055.977-8 1l-2-2h-2l2-17h-8l-1-6 4-1v-2Z" fill="#DAC688"/><path d="m75 57 2 1-1 5h8v-2h4l-1 3c-3.063 1.188-3.063 1.188-6 2v4c3.199.089 5.927-.09 9-1l-4 5 3 2v6l-12 1v5l-1 1a101.93 101.93 0 0 1-5.563-.438l-3.066-.308L65 88c-.207-5.789.408-10.43 2-16h3v-2h2l1 4 4-1 1-8-3-1c-1.188-2.063-1.188-2.063-2-4l2-3Z" fill="#777"/><path d="m104 122 4.492 3.809c3.425 2.706 6.595 2.573 10.828 2.554 4.332-.587 7.25-2.798 10.68-5.363l2-1c3.358 11.865 3.129 23.774 3 36l-4-1 2-3c.242-2.745.242-2.745.125-5.688L133 143l-14 1v6h7l-1 2c-3.313.875-3.313.875-7 1-2.5-1.5-2.5-1.5-4-4 .063-3.625.063-3.625 1-7 4.285-2.857 7.964-2.347 12.938-1.5l2.062.5 2-6c-6.05-1.976-11.196-3.294-17.25-.5L112 136h-3c-3-5.75-3-5.75-3-8h-2v-6Z" fill="#3D3C3A"/><path d="M181 95v7h-8l.438 2.598c.95 5.858 1.838 11.464 1.562 17.402h-8c-1.229-6.068-2.276-11.799-2-18h-9v-7c8.397-1.373 16.486-2.313 25-2Z" fill="#ECD27C"/><path d="M47 57h1v122l-3 1c-.047-15.447-.082-30.893-.104-46.34a11870.3 11870.3 0 0 0-.047-21.516c-.02-6.25-.033-12.502-.037-18.753-.003-3.31-.01-6.62-.023-9.93a2659.58 2659.58 0 0 1-.016-11.083l-.022-3.328.008-3.051-.005-2.648c.265-2.533.97-4.166 2.246-6.351Z" fill="#D5AF66"/><path d="m123 55 2 1-1 1c6.144.223 11.072-.21 17-2 5.626-.502 9.05.575 14 3v3l-2 1 1 4-4 1v-2a335.69 335.69 0 0 0-12-2l-2.402-.414c-2.3-.332-2.3-.332-5.598.414-1.541 1.95-2.63 3.947-3.77 6.152C125 71 125 71 121.687 72H119c-1.33-2.8-2.213-4.973-1.57-8.074 1.332-3.716 2.619-6.241 5.57-8.926Z" fill="#C4C4C4"/><path d="M131 164h2c1.194 26.958 1.194 26.958 1 39-2-1-2-1-3-4l-2-1-3 13h-2l.035-2.117.028-2.758.035-2.742c.064-2.4.064-2.4-1.098-4.383l-2 2-2-1v2l-2.313-.063c-2.789-.066-2.789-.066-5.687 1.063-.625-1.813-.625-1.813-1-4l2-3c.167-2.625.167-2.625 0-5l1.813.563c2.351.658 2.351.658 5.187-.563l1 2 1-3h2l1 2 3-1c3.508-8.426 3.644-18.006 4-27Z" fill="#DEDEDE"/><path d="M58 24h135v10h-1v-8H60v7h-2v-9Z" fill="#141018"/><path d="m178 65 1 7h-9l1 2c1.025 5.984 1.096 11.946 1 18h-8c-.338-2.062-.67-4.124-1-6.188l-.563-3.48c-.372-2.836-.523-5.48-.437-8.332l-4-1 7-1c-.703-2.51-.703-2.51-2-5-2.03-.695-2.03-.695-4-1 6.362-.655 12.604-1.12 19-1Z" fill="#E0D190"/><path d="M120 84c3.403 1.059 6.014 2.009 9 4v2c4.335 1.445 8.751 1.39 13.283 1.605 5.515.294 5.515.294 7.717 1.395l-1-3-2-1v-2l-4-1c2.862-1.43 4.934-.6 8 0 .222 1.456.427 2.915.625 4.375l.352 2.46L152 95l-2 2h-4l.5 1.563c.65 3.17.562 6.21.5 9.437h-7l-1-9-2.75.188c-3.715-.215-4.696-.549-7.25-3.188-.992-1.727-1.981-3.457-2.918-5.215-1.649-2.72-3.744-4.642-6.082-6.785Z" fill="#212124"/><path d="M135 152h1v6l8-1v-3c3.796.542 5.472 2.201 8 5-4.12 1.292-7.668 2.263-12 2v2l6 1-1 2.25c-1.228 2.889-1.228 2.889-1 6.75l1.898.113 2.477.2 2.46.175C153 174 153 174 155 177l-1 3h-8v-2l-10-1-1-25Z" fill="#676767"/><path d="M122.188 101.578c2.187.734 2.187.734 5.812 2.422 1 3 1 3-1 8l-11 1v6h7c-2 2-2 2-5.438 2.375-3.562-.375-3.562-.375-5.5-2-1.313-2.935-1.279-5.194-1.062-8.375l-6-2c2.75-7.7 9.9-9.348 17.188-7.422Z" fill="#E7CF7D"/><path d="m141.625 65.938 2.477.027L146 66v2l3.438.438C153 69 153 69 154 70c0 2.152-.004 4.305-.035 6.457.034 2.46.27 4.795.597 7.23.46 3.635.269 6.714-.562 10.313h-2v-5l-2-1 1-2-3 1a70.134 70.134 0 0 1-4-1h-3l-3-1c3.135-1.858 5.375-2.201 9-2v-3c-4.79-.234-4.79-.234-9 2a56.54 56.54 0 0 1 4-7c2.625-.188 2.625-.188 5 0v-5l-1.672 1.023c-2.831 1.188-4.555 1-7.578.602l-2.703-.336L133 71c2.106-4.663 3.607-5.134 8.625-5.063Z" fill="#848483"/><path d="m199 43 2 1c.023 21.028.041 42.056.052 63.084.005 9.765.012 19.53.023 29.294.01 8.516.017 17.031.02 25.546 0 4.505.003 9.01.01 13.515.008 4.249.01 8.498.008 12.747 0 1.55.002 3.101.006 4.652.022 9.098-.26 18.1-1.119 27.162h-6v9h-23v-1h22v-10h5v-12h2l-1-163Z" fill="#D4901B"/><path d="M95 139h1l2 23 4 1-4 2v21h-1l-1-24-1 2h-2v8h-1v-7h-8v-10l10-1-1-7-10 1v-4h12v-5Z" fill="#121211"/><path d="M104 135c1.27 9.04 2.35 17.844 2 27h-8c-1.448-8.74-2.292-17.14-2-26 2.892-.826 4.887-1 8-1Z" fill="#CEAF60"/><path d="m132 135-1 6c-3 1-3 1-6 0-4.645-.409-4.645-.409-8.938 1.063-1.617 2.949-1.248 5.646-1.062 8.937-5.75-1.75-5.75-1.75-8-4-.625-3.188-.625-3.188 0-7 7.29-8.576 15.045-9.876 25-5Z" fill="#D6C282"/><path d="M44 17h24v1h119v-1h19v3H44v-3Z" fill="#A15D13"/><path d="M94.563 73.938 98 74c.339 2.833.671 5.666 1 8.5.095.791.19 1.583.29 2.398.581 5.072.804 9.997.71 15.102-2.709 1.354-5.01 1.065-8 1a2429.92 2429.92 0 0 1-1-8.5c-.095-.791-.19-1.583-.29-2.398-.58-5.07-.894-9.998-.71-15.102 1-1 1-1 4.563-1.063Z" fill="#DED49D"/><path d="M67 169h2c1.87 7.232 3.133 13.853 3.063 21.375l-.028 3.773L72 197h2v5h-2l-1 6h-2v-3h-2l-1-2-2 7h-2c.748-7.69 2.102-15.17 3.627-22.74 1.179-6.163 1.61-11.988 1.373-18.26Z" fill="#E0E0E0"/><path d="m108 87 2 4h9l1-2c2.438-.75 2.438-.75 5-1 2.75 2.75 3.17 5.235 4 9-.375 2.938-.375 2.938-1 5l-3-2-1 2h-4c-1.75-2.5-1.75-2.5-3-5l-1 2c-6.308.364-6.308.364-9.375-1.25-1.9-2.047-2.625-2.938-2.625-5.75 1.938-2.75 1.938-2.75 4-5Z" fill="#E4D291"/><path d="M154.563 53.469A131.872 131.872 0 0 1 161 58c-.379 1.93-.379 1.93-1 4-1.938 1.125-1.938 1.125-4 2l-2 2-2-5h3v-3c-7.35-2.4-13.165-2.273-20.645-.445-3.813.72-7.484.568-11.355.445 1.837-3.998 3.745-5.954 7.918-7.5 7.66-1.84 16.794-.958 23.644 2.969Z" fill="#E2E3E2"/><path d="M147 147h4l1 9 7-1v4l3.438-.063C166 159 166 159 167 160c.04 2.333.042 4.667 0 7-2-2-2-2-4-5-1.985.267-1.985.267-4 1l-1 3c-6.205-.483-12-1.333-18-3v-2l11-3-4-2.25c-2.25-1.266-2.25-1.266-4-2.75v-4h4v-2Z" fill="#D7D6D5"/><path d="M87 51c2.365 2.5 4.092 5.138 6 8-.297 4.159-.67 6.504-3 10-3.05 1.998-5.397 2.2-9 2l-2-4c2.433-2.945 4.324-3.323 8-4l1-2h-4v2h-4v-8h-2l1-3c3.067-1.022 4.816-1.466 8-1Z" fill="#D3D3D3"/><path d="M87 86v7h-9l1 10h-3v-2l-2 1c-2.333.04-4.667.043-7 0 0-3.147.6-4.288 2-7v-2h2v-2h2v-2c5.01-3.006 8.327-3.293 14-3Z" fill="#D2CBA2"/><path d="M100 92c2.508 1.115 4.244 2.218 6.313 4.063 3.25 2.343 5.739 2.627 9.687 2.937l1-3c3 3.875 3 3.875 3 5l-1.793.297c-5.815 1.1-9.869 2.43-13.457 7.453-1.125 3.376-1.396 6.711-1.75 10.25h-1l-1-15h-9v-3l8-1v-8Z" fill="#171714"/><path d="M168 155c2 2 2 2 2.227 5.256 0 1.386-.012 2.772-.032 4.158l-.008 2.211c-.011 2.334-.037 4.667-.062 7-.01 1.58-.02 3.161-.027 4.742-.022 3.878-.057 7.755-.098 11.633h-2l2 7h-4c-1.75-2-1.75-2-3-4l1.125-1.563c1.075-2.993.324-4.373-.676-7.289-.907-4.338-.031-8.797.551-13.148h3c-.095-.904-.19-1.807-.29-2.738-.11-1.18-.22-2.36-.335-3.575l-.352-3.55C166 158 166 158 168 155Z" fill="#666"/><path d="m127 92 2 1 .625 1.938c1.699 2.548 2.593 2.6 5.5 3.312L139 99l1 9h7l-1-10h7v7l-2-1-2 1c-.656 2.527-.656 2.527-1 5-1.48-.14-2.959-.288-4.438-.438-.823-.08-1.647-.162-2.496-.246C139 109 139 109 138 108l-2 3h-4l-.875-3.438L130 104l-2-1c-.414-2.504-.414-2.504-.625-5.563l-.227-3.066L127 92Z" fill="#DEBF6E"/><path d="M135 162h1l-.105 3.867c-.029 1.67-.056 3.339-.083 5.008l-.076 2.55-.029 2.442-.048 2.254L136 180l3 2v2l2.125.25c3.583.935 5.956 2.494 8.875 4.75l1 3-16-2-1 3c-1.01-3.344-1.115-6.375-1.098-9.86l.01-3.378.025-3.512.014-3.559c.012-2.897.028-5.794.049-8.691h2v-2Z" fill="#181818"/><path d="M176 134h1c.745 6.373 1.103 12.583 1 19-6.055.977-6.055.977-8 1l-2-2h-2c.656-4.481 1.328-8.78 3-13 3.063-1.813 3.063-1.813 6-3l1-2Z" fill="#E0C478"/><path d="M94 164h2l.076 2.092c.117 3.157.239 6.314.362 9.47l.119 3.292c.248 6.643.248 6.643 1.04 13.236C98 195 98 195 97 198h-2v-3h-2l-1 4-4-2v-2h2l1-19 2 1 1-13Z" fill="#E2E2E2"/><path d="M133 143c.276 1.767.52 3.539.75 5.313l.422 2.988C134 154 134 154 132.016 155.855L130 157v-2h-5v-4l-6-1v-6c4.672-1.206 9.215-1.094 14-1Z" fill="#C9AF6E"/><path d="m143 63 9 1-2 1v2c2.473-.344 2.473-.344 5-1l1-2 1 2 2.938.313L163 67c1.375 2.563 1.375 2.563 2 5l-7 1-.375 3.75c-.382 3.126-.93 5.539-2.625 8.25h-1c-.17-1.562-.336-3.125-.5-4.688l-.281-2.636c-.21-2.573-.256-5.096-.219-7.676l-7-2v-2l-3-1v-2Z" fill="#F0E5AB"/><path d="M130 75c2.313.188 2.313.188 5 1 1.813 2.563 1.813 2.563 3 5l1.688-1.063c2.85-1.155 4.397-.747 7.312.063v3l-1.898.586-2.477.789-2.46.773c-2.33.75-2.33.75-4.165 2.852-2.625.125-2.625.125-5 0l-.75-2.438L129 83l-4-1 5-7Z" fill="#CFCFCF"/><path d="M131 31c4 0 4 0 5.75 1.5L138 34l2-3h4v13h-4l-1-4-3 1-1 3h-4V31Z" fill="#BDBDBD"/><path d="m75 57 2 1-1 5h8v-2h4l-1 3c-3.063 1.188-3.063 1.188-6 2v4c3.199.089 5.927-.09 9-1l-4 5 2 2c-1.73.027-3.458.047-5.188.063l-2.917.035c-2.75-.093-5.22-.477-7.895-1.098v2l-4-1 1-2-2-2h3v-2h2l1 4 4-1 1-8-3-1c-1.188-2.063-1.188-2.063-2-4l2-3Z" fill="#AEAEAE"/><path d="M48 209h2v11h5c.125 7.75.125 7.75-1 10h-9v-10h2l1-5h-3l1-3 2-1v-2Z" fill="#DDAE4B"/><path d="M156 114c3.344.557 6.033 1.352 9 3l2-3v8h5l2 5c-3.373.72-6.548 1.221-10 1-2.626-1.72-3.38-3.19-5-6v-3h-3v-5Z" fill="#888372"/><path d="m147 141-1.438 1.5c-2.184 3.495-2.221 6.41-2.562 10.5l2 1-1 3-8 1-1-13c7.286-4.571 7.286-4.571 12-4Z" fill="#E0C479"/><path d="m123 79 1.313 1.438c1.71 1.799 1.71 1.799 4.687 2.562 1.188 2.063 1.188 2.063 2 4 4.087.24 7.177-.577 11-2v1l5 1v2l3 1v3c-18.092-.038-18.092-.038-22.438-3.938L125 86l-3-2h2l-1-5Z" fill="#A1A1A1"/><path d="M106 31c7.303-.36 7.303-.36 10.063 1.063 1.475 3.048.518 5.683-.063 8.937l1 3c-4.875-.875-4.875-.875-6-2l-1 2h-4V31Z" fill="#DEDEDE"/><path d="m136 178 3.188.938C145.03 180.422 151 180.653 157 181c-.702 4.397-2.032 6.649-5 10l-1.828-1.277-2.422-1.66-2.39-1.653c-2.206-1.318-3.883-1.87-6.36-2.41-1.75-1.375-1.75-1.375-3-3v-3Z" fill="#8B8B8B"/><path d="m158 161 2 1c2.098-.4 2.098-.4 4-1 3.249 4.975 4.5 7.882 4 14l-1-4h-3v9h-5l-1 4v-7h4l-1-3h-2l-1-13Z" fill="#F1F1F1"/><path d="M167 72h2v2h2a124.857 124.857 0 0 1 1 18h-8c-.96-2.882-1.106-4.699-1.063-7.688l.028-2.449L163 80l3-1 2 1c.082-3.044-.024-5.072-1-8Z" fill="#DBC780"/><path d="M179 95v1h-7l-.813 2.375C170 101 170 101 167 103c-.577 1.964-.577 1.964-.688 4.125L166 111h-1v-7h-9v-7c7.727-1.231 15.168-2.27 23-2Z" fill="#DEC77D"/><path d="M134 131h8v9h6l1-5h1v6l-3.75.313c-3.6.431-5.462 1.312-8.25 3.687h-3c-.936-3.155-1.106-5.966-1.063-9.25l.028-2.703L134 131Z" fill="#DECC92"/><path d="M134 126c7.404-.37 7.404-.37 10.313 1.438L146 129l3 1c.125 7.75.125 7.75-1 10h-6v-9h-8v-5Z" fill="#F3F3F1"/><path d="m122 59 13 1-1 2-1.914.375c-2.231.434-2.231.434-3.36 2.438l-1.1 2.187c-2.223 3.879-2.223 3.879-5.938 5H119l-2-6 1.938-.688L121 64l1-5Z" fill="#B2B2B2"/><path d="m143 112 1 2 3 1-7 1 1 10h-7l-1 4c-1.083-5.305-.95-8.928 1-14 1.86-2.789 2.839-2.965 6.188-3.688L143 112Z" fill="#ECDA8B"/><path d="M118 31h4v9h3v-9h4c.08 1.79.14 3.583.188 5.375l.105 3.023L129 42c-3 2-3 2-6.625 1.688C119 43 119 43 118 42a110.238 110.238 0 0 1-.063-5.563l.028-3.066L118 31Z" fill="#B9B9B9"/><path d="M203 21v1h-8v10h5c.054 1.791.093 3.583.125 5.375l.07 3.023C200 43 200 43 198 45V34h-5l1-12h-40v-1c4.053-.145 8.105-.287 12.158-.427 1.373-.048 2.746-.096 4.12-.146 24.705-.885 24.705-.885 32.722.573Z" fill="#C08828"/><path d="m143 50-1 2 4 3c-7.78 1.86-14.983 3.415-23 3 1.834-3.99 3.738-5.924 7.883-7.508 4.003-.93 8.037-.714 12.117-.492Z" fill="#DDD"/><path d="M83 105h11v2h6v2l-1.938.75c-2.25 1.066-2.25 1.066-2.812 3.375L95 115l2 1-1 3h-2l-1-7H80l2-4h2l-1-3Z" fill="#E9D382"/><path d="M44 141h1v74h3l1 3h-2v2h-2v10h-1v-89Z" fill="#DD9604"/><path d="m201 218 1 2h3v10h-10v-10h6v-2Z" fill="#EAB74A"/><path d="M67 169h2c2.547 8.831 3.858 17.916 2 27l-3 1c-2.069-5.836-2.096-10.68-1.625-16.813l.336-5.082c.055-.74.11-1.481.165-2.245.086-1.284.124-2.573.124-3.86Zm4-115h5l-2 1c-.652 2.025-.652 2.025-1 4h-2l-2 9h-2l.125 3.25C67.145 76.931 66.039 82.433 65 88h-2v-3l-2-1 .805-3 .515-1.928 1.117-4.16c.928-3.458 1.8-6.914 2.563-10.412 1.15-4.028 2.787-6.96 5-10.5Z" fill="#B5B5B5"/><path d="M205 21h1v75h-1l-1-54h-2l.5-1.875c.706-3 .503-4.116-.5-7.125l1-3h2v-9Z" fill="#E09E08"/><path d="M46 136h1c.996 4.953 1.131 9.655 1.098 14.68l-.005 2.463a2771.07 2771.07 0 0 1-.03 7.732A5728.622 5728.622 0 0 1 48 179l-3 1c-.025-6.106-.043-12.211-.055-18.317a3608.66 3608.66 0 0 0-.02-6.236c-.013-2.981-.018-5.962-.023-8.943l-.015-2.835v-2.608l-.007-2.308C45 137 45 137 46 136Z" fill="#D39D44"/><path d="M125 140c3.438 1 3.438 1 6 2v1l-12 1v6h7l-1 2c-3.313.875-3.313.875-7 1-2.5-1.5-2.5-1.5-4-4 .063-3.625.063-3.625 1-7 3.73-2.487 5.576-2.3 10-2Z" fill="#0D0C0B"/><path d="m78.563 105.75 2.378-.078L83 106l2 3-2 2-1-2-1 2 5 1v1h-6l-1 2-6-2v11h-1l-1-17c2.777-.926 4.677-1.193 7.563-1.25Z" fill="#DCC074"/><path d="M159 145c5.829 2.331 5.829 2.331 8 7 .813 2.688.813 2.688 1 5l-2 2h-7v-14Z" fill="#DAD8D1"/><path d="M150 199h2v2l8 1v2l4-1c0 4 0 4-1 6-1.98-.14-3.959-.287-5.938-.438-1.102-.08-2.204-.162-3.34-.246C151 208 151 208 150 207c-.141-2.67-.042-5.324 0-8Z" fill="#3F3F3F"/><path d="m119 108.625 2.625-.023C124 109 124 109 127 112l-11 1v6h7c-2 2-2 2-5.438 2.375-3.562-.375-3.562-.375-5.5-2.063-1.254-2.73-1.519-4.341-1.062-7.312 2.335-3.141 4.179-3.41 8-3.375Z" fill="#151615"/><path d="M196 20h10l-1 9-5 1v1h-5a585.281 585.281 0 0 1-.063-4.375l-.035-2.46C195 22 195 22 196 20Z" fill="#E3B655"/><path d="M146 32c6.055-.195 6.055-.195 8 0l2 2c-.556 4.556-.556 4.556-2 6-1.666.04-3.334.043-5 0v3h-3V32Z" fill="#F5F5F5"/><path d="M131 164h2l1 33h-1v-6l-4 2a672.997 672.997 0 0 1-.063-4.75l-.035-2.672c.098-2.578.098-2.578.567-4.422.803-3.259.901-6.567 1.094-9.906l.13-2.113c.106-1.712.207-3.425.307-5.137Z" fill="#C3C3C3"/><path d="M94 31h11v4h-3v9h-4v-9h-4v-4Z" fill="#CFCFCF"/><path d="m44 230 8 1v2h54v1H44v-4Z" fill="#B56100"/><path d="M139 184c4.517.531 7.42 2.234 11 5l1 3-16-2-1 3a128.624 128.624 0 0 1-1-6c1-1 1-1 3.563-1.063L139 186v-2Z" fill="#363636"/><path d="M113 101c5.782-.361 9.72.542 15 3l1 3c-1.438 2.188-1.438 2.188-3 4l-2-1c-1.537-.225-3.08-.408-4.625-.563l-2.477-.253L115 109l3-2-1-2 1-3h-5v-1Z" fill="#C7B06C"/><path d="M116 78v5h-3v6h5v2c-5.414 1.323-5.414 1.323-7.813 0-1.805-3.041-2.125-5.482-2.187-9 2.571-3.714 3.378-4 8-4Z" fill="#1D1D1C"/><path d="M120 84c3.403 1.059 6.014 2.009 9 4v2c3.315 1.105 6.204 1.321 9.688 1.563l3.574.253L145 92v1l-3.75.188c-3.556.416-4.096.655-6.75 3.374L133 99c-3.523-2.139-5.003-4.621-6.918-8.215-1.649-2.72-3.744-4.642-6.082-6.785Z" fill="#404040"/><path d="m77 87 1 3-1 1a85.688 85.688 0 0 0-.563 4.563l-.253 2.503L76 100h-7v2l-3-1 1.5-1.75c1.87-2.354 1.87-2.354 1.5-6.25h2v-2h2v-2l4-2Z" fill="#CCCCCB"/><path d="m80.504 75.902 3.058.035 3.067.028L89 76v6l-12 1c0-6.961 0-6.961 3.504-7.098Z" fill="#DED7AC"/><path d="m123.625 111.938 3.04.027L129 112v2l-6 3 2 4c-1 1-1 1-3.066 1.098l-2.496-.035-2.504-.028L115 122v-1l6-1-5-1v-6c2.645-1.322 4.678-1.097 7.625-1.063Z" fill="#DBCA89"/><path d="M104 135v11l-6-1-1 2-1-11c4-1 4-1 8-1Z" fill="#D5B76A"/><path d="m93 124-1 3-2-1a75.68 75.68 0 0 0-5 1l4 4-5-2-1 6h5v1l-14 1v-2l8-1-1-10c4.256-1.16 7.684-.762 12 0Z" fill="#13110D"/><path d="M92 101a98.44 98.44 0 0 1 16 1c0 3 0 3-1.938 5.688-2.517 4.043-2.738 6.618-3.062 11.312h-1l-1-15h-9v-3Z" fill="#0E0E0D"/><path d="M135 152h1v6l8-1v-3c3.824.546 5.392 2.26 8 5-1.894.507-3.79 1.006-5.688 1.5l-3.199.844C140 162 140 162 135 162v-10Z" fill="#81807D"/><path d="M44 21h6v1h-5l1 16 3 1v3h-4v31h-1V21Z" fill="#D08C0A"/><path d="M185 199c2.784 1.392 2.885 2.927 3.938 5.813 1.015 2.783 1.89 4.961 3.69 7.324C194 214 194 214 194 217l4 1h-5v10h-1l-.113-2.047-.2-2.703-.175-2.672c-.588-2.96-1.704-4.205-3.512-6.578-.95-2.91-.95-2.91-1.688-6.063l-.761-3.16C185 202 185 202 185 199Z" fill="#323232"/><path d="m98 194 1 3h2v3l-7 2-1-1-2 4h-2v-3h-2l-1-5 6 1 1-3h2v3h2l1-4Z" fill="#F0F0F0"/><path d="M174 139c.687 2.49 1 4.379 1 7l2 1v6l-7 1-1-10 4-2 1-3Z" fill="#DEBD6D"/><path d="M125 144h7v12l-2 1v-2h-5v-3h2v-3l-3-1h3v-2l-2-2Z" fill="#E2C271"/><path d="M111 117c3 3.75 3 3.75 3 6l2 1v1h7l1 3c-2.44 1.22-4.153 1.202-6.875 1.25l-2.617.078c-2.958-.387-4.3-1.377-6.508-3.328h2l1-9Z" fill="#DECF8E"/><path d="M45 20h9l-1 9h-8v-9Z" fill="#DEBB5E"/><path d="M187 17h19v3h-42v-1l23-1v-1Z" fill="#9D5412"/><path d="M198 206c2 2 2 2 2.195 4.82l-.07 3.305-.055 3.32L200 220h-6v9h-23v-1h22v-10h5v-12Z" fill="#C78926"/><path d="m149 75 3 2-2 1c-.652 2.025-.652 2.025-1 4h2l1 7-2-1 1-2-3 1a70.134 70.134 0 0 1-4-1h-3l-3-1c3.135-1.858 5.375-2.201 9-2v-3l-4-2c1-1 1-1 3.563-1.063L149 77v-2Z" fill="#3E3E3E"/><path d="M108 139h4v2h3v10c-5.75-1.75-5.75-1.75-8-4-.188-3.563-.188-3.563 0-7l1-1Z" fill="#DEC274"/><path d="M124 99c3.926 1.309 5.442 2.732 8 6 .732 3.104.79 6.132.813 9.313l.076 2.533A359.1 359.1 0 0 1 133 123c-2.566-3.85-2.551-6.435-3-11h-3l1-7-4-2v-4Z" fill="#EEECE0"/><path d="m68 79 2 1v3l6-1v7l-10-1c-.25-5.625-.25-5.625 2-9Z" fill="#5C5C5C"/><path d="M147 147h4l2 11c-7.083-2.833-7.083-2.833-10-5v-4h4v-2Z" fill="#F1F0ED"/><path d="M159 146v9l-7 1v-9c3-1 3-1 7-1Z" fill="#E1C16F"/><path d="m85 175 2 1v26l2 1-2 2c-2-3-2-3-2-6l-2-1 .48-1.716c.528-2.319.724-4.458.836-6.83l.127-2.56.12-2.644.13-2.691c.106-2.186.208-4.373.307-6.559Z" fill="#C8C8C8"/><path d="M136 162c3.47.458 6.674.891 10 2l-1 3a252.441 252.441 0 0 1-7 3l-1 2h2v3h-3v-13Z" fill="#474747"/><path d="m96 142 2 3c3.93-.575 3.93-.575 7-3v8h-2v3l-5-2v7h-1l-1-16Z" fill="#CAAA5D"/><path d="M104 122c3.506 2.869 6.853 5.732 10 9l-2 5h-3c-3-5.75-3-5.75-3-8h-2v-6Z" fill="#383838"/><path d="M91 74h7c1.466 8.428 1.251 16.555 0 25l-3-1-1-6h3V80l-2-1v-3l-4-2Z" fill="#F0E3A4"/><path d="M81 155h2c1.85 3.123 2.294 5.38 2 9-1 1-1 1-4.563 1.063L77 165v-7h4v-3Z" fill="#DCB963"/><path d="M88 176h2c.695 6.512 1.32 12.551 0 19h-2l-1 2c-.027-2.75-.047-5.5-.063-8.25l-.025-2.355-.01-2.286-.016-2.094c.12-2.115.538-3.981 1.114-6.015Z" fill="#131313"/><path d="m138 106 1 3h8c-3.251 3.902-6.153 4.766-11 6l-3 2c-1-1-1-1-1.063-3.563L132 111l1.875-.25c2.31-.563 2.31-.563 3.375-2.813L138 106Z" fill="#E8CC78"/><path d="m142 167 2 1c.598 2.983.743 5.963 1 9h-9v-2h3v-3h-2c1-3 1-3 2.938-4.25L142 167Z" fill="#535353"/><path d="m95 121 3 2h4l1 8h-8v-10Z" fill="#E3D593"/><path d="m178 65 1 7h-6l-1-5h-13v-1c6.362-.655 12.604-1.12 19-1Z" fill="#D5C486"/><path d="M96 148h1l1 14 4 1-4 2v21h-1l-.076-2.187c-.116-3.25-.238-6.5-.362-9.75l-.119-3.444-.127-3.271-.11-3.031c.047-2.278.047-2.278-1.206-3.317a76.522 76.522 0 0 1-.125-4.875l-.008-2.68C95 151 95 151 96 148Z" fill="#211F19"/><path d="M117 68c1.063 1.875 1.063 1.875 2 4l-1 2c-.071 2.374-.084 4.75-.063 7.125l.028 3.883L118 88h-4v-5h2v-5l-4-1 2-1-1-4 3-1 1-3Z" fill="#E7E2C5"/><path d="m126 127 2 6-2.012-.035c-6.551-.084-6.551-.084-12.988 1.035v-3l-2-2 2.336-.184 3.039-.254c.998-.08 1.995-.162 3.023-.246 2.474-.3 4.155-1.316 6.602-1.316Z" fill="#060707"/><path d="M173 108h1l1 14h-7v-7l3 1 2-8Z" fill="#E4D183"/><path d="m93.25 101.938 3.266.027L99 102v1l-6 1v1c-7.358.912-14.59 1.115-22 1v-3l2.484.035 3.266.028 3.234.035c2.872.013 2.872.013 5.016-.598 2.774-.693 5.397-.594 8.25-.563Z" fill="#161511"/><path d="M146 98h7v7l-2-1-2 1c-.656 2.527-.656 2.527-1 5l-9-1 1-4v3h7l-1-10Z" fill="#CDB572"/><path d="m104 82 3 1c.688 2.75.688 2.75 1 6-1.375 2.25-1.375 2.25-3 4l-1 2c-2.507-2.612-2.994-3.945-3.375-7.625L101 84l3-2Z" fill="#F1E4A7"/><path d="M98 192h5v2h2v3h-2l-.25 2.313c-.75 2.687-.75 2.687-2.5 4.562-2.845 1.422-4.266 1.037-7.25.125l-1-3h5l1-2 3 1v-3h-2l-1-5Z" fill="#BBB"/><path d="M140 116h5l3 12c-5-2-5-2-7-3-.414-2.066-.414-2.066-.625-4.563l-.227-2.503L140 116Z" fill="#F0EFEB"/><path d="M125 89c2 1 2 1 3.188 4.25.763 3.522.837 5.367-.188 8.75l-3-2-1 2-4-1 1-6h4v-6Z" fill="#BAB9B7"/><path d="M90 75h6c1.125 6.75 1.125 6.75 0 9h-3v2h-2c-1.283-3.85-1.066-6.947-1-11Z" fill="#F3E9AE"/><path d="M179 95v1h-7l-.813 2.375C170 101 170 101 167 103c-.577 1.964-.577 1.964-.688 4.125L166 111h-1v-8l-4-1h4l-1-6c5.05-1.036 9.874-1.103 15-1Z" fill="#D2BE79"/><path d="m83 144-1 7h-5v4h2v2l-3-1v-11c3-1 3-1 7-1Z" fill="#DEBC65"/><path d="m70 62 3 1 1 8 4 1-1 2h-4l-1-4h-2v2h-3v-4h2l1-6Z" fill="#969696"/><path d="m54 90 2 4 4-1v8l-7 1 1-12Z" fill="#CACACA"/><path d="M48 43c.185 14.781.185 14.781-1 21-2.031-3.047-2.247-3.601-2.195-7.012l.02-2.295.05-2.38.027-2.417c.024-1.965.06-3.93.098-5.896 2-1 2-1 3-1Z" fill="#C78C37"/><path d="M81 65c2.164.023 2.164.023 4.625.375l2.477.336L90 66v3c-3.135 1.858-5.375 2.201-9 2l-2-4 2-2Z" fill="#EAEAEA"/><path d="m123 55 2 1-1 1h14c-3 3-3 3-6.137 3.293l-3.55-.105-3.575-.083L122 60l-1 4h-2l-1 3c.415-5.288 1.352-8.117 5-12Z" fill="#B7B7B7"/><path d="M175 153h4c1.756 5.376 2.393 10.301 2.625 15.938l.117 2.36c.093 1.9.177 3.801.258 5.702l-2-1c-1.746-7.244-2.252-14.576-2-22l-3-1Z" fill="#393837"/><path d="M156 114h3l1 3 2.5 2.313c2.805 3.015 3.219 4.654 3.5 8.687h-2c-5-5.357-5-5.357-5-9h-3v-5Z" fill="#535251"/><path d="M125 88v7l-3 1-1 5-2-1V89c2-1 2-1 6-1Z" fill="#D3D3D3"/><path d="M109 34c1.938.375 1.938.375 4 1l1 2 3-3-.563 3.313c-.695 3.623-.695 3.623.563 6.687l-5-1-.375-1.938L111 39l-2-1v-4Z" fill="#A2A2A2"/><path d="m149 78 5 1c.756 5.235 1.206 9.773 0 15h-2l-1-12h-2v-4Z" fill="#8C8B87"/><path d="M197 29c1.945-.293 1.945-.293 4.125-.188L205 29l-2 1v5l2 1c-1 3-1 3-3 4l-2 3V32h-5l2-3Z" fill="#D4AA4F"/><path d="M202 209h3c1.174 2.349 1.115 3.738 1.098 6.352l-.01 2.578-.025 2.695-.014 2.719c-.012 2.219-.028 4.437-.049 6.656h-1v-10h-3l-1-3 1-2h3l-1-2-3-1 1-3Z" fill="#BA7E1D"/><path d="M135 190a398.51 398.51 0 0 1 5.188-.125l2.917-.07c3.023.204 5.163.926 7.895 2.195l1-2 3 3h-20v-3Z" fill="#626263"/><path d="M90 188h1l1 6 1-4h2l2-2c1.125 6.625 1.125 6.625 0 10h-2v-3h-2l-1 4-4-2v-2h2v-7Z" fill="#959595"/><path d="m152 159-1 6-11-2v-2c4.177-1.591 7.532-2.213 12-2Z" fill="#E8E8E8"/><path d="m122 59 13 1c-1.305 2.61-2.358 2.68-5.063 3.625-.733.26-1.466.52-2.222.79-.566.192-1.132.386-1.715.585l-1-3h-3l-1 2 1-5Z" fill="#909090"/><path d="M153 98h1l1 13-3 1-2-2h-2v-5l1.938-.688c2.334-1.165 2.334-1.165 2.812-3.937L153 98Z" fill="#EBCD7B"/><path d="M131 31h4c1.456 4.52.27 7.516-1 12h-3V31Z" fill="#DFDFDF"/><path d="M134 193h18l-1 3-17-1v-2Z" fill="#7A7A7A"/><path d="M160 148h2l.313 2.313c.75 2.93 1.573 3.665 3.687 5.687v3h-7l1-11Z" fill="#F3F3F2"/><path d="m129 116 2 1c.625 2.563.625 2.563 1 5l-5 4-2-1c.615-5.538.615-5.538 2.563-7.875L129 116Z" fill="#DACA8C"/><path d="M70 70h2l1 4 7-2 2 3c-3.695.95-6.305.95-10 0v2l-4-1 1-2-2-2h3v-2Z" fill="#454545"/><path d="M54 26h1v5h-5v12l-5 1v-2l3-2-3-1v-3l3-2c.724-2.06.724-2.06 1-4h5v-4Z" fill="#E0B24E"/><path d="M59 218h1v7l5.957-.098C68 225 68 225 71 226v2H59v-10Z" fill="#151715"/><path d="m131 122 2 3-.875 1.688c-1.166 2.397-2.159 4.828-3.125 7.312-2.624-3.061-3-3.732-3-8 2.5-2.25 2.5-2.25 5-4Z" fill="#343538"/><path d="m81 106-1 2h-4v2h-2l-1 14h-1l-1-17c3.473-1.158 6.36-1.069 10-1Z" fill="#AFA26D"/><path d="M143.125 85.938c.949.35 1.898.7 2.875 1.062l-1 4h-9c2.333-6.5 2.333-6.5 7.125-5.063Z" fill="#CECECE"/><path d="m143 63 9 1-2 1v2c2.473-.344 2.473-.344 5-1l1-2 1 3-3 1-1 2-7-2v-2l-3-1v-2Z" fill="#C9C9C9"/><path d="m75 57 2 1-1 5h8v-2h4l-1 3c-2.902 1.391-5.786 1.99-9 2-3.063-2.375-3.063-2.375-5-5l2-4Z" fill="#414141"/><path d="M205 21h1c.058 3.125.094 6.25.125 9.375l.05 2.695.02 2.578.032 2.38C206 40 206 40 204 42h-2l.5-1.875c.706-3 .503-4.116-.5-7.125l1-3h2v-9Z" fill="#B77A18"/><path d="M158 167h1v7l3-1v4h-4v13l-2-1c.486-7.362.977-14.691 2-22Z" fill="#CCC"/><path d="m168 150 2 4h8v8h-1l-1-5-4-1-2 4a327.76 327.76 0 0 1-1.563-3.875l-.878-2.18C167 152 167 152 168 150Z" fill="#181817"/><path d="M154 157c2.503 2.938 3.47 5.179 4 9l-7-1 1-6h2v-2Z" fill="#9C9C9C"/><path d="M74 125h1l1 6 4-1 1-5h1v8l-9 1c-.125-6.75-.125-6.75 1-9Z" fill="#B3A97B"/><path d="m118 81 1 2 2 1a99.797 99.797 0 0 1 3 4c-1.313 1.5-1.313 1.5-3 3h-3v-2h-5v-6h1v5h4v-7Z" fill="#AAAAA4"/><path d="M45 223h6l-1 6 3 1h-8v-7Z" fill="#E4BE5E"/><path d="M154 70c2 3 2 3 2 5h2c-.281 1.481-.575 2.96-.875 4.438l-.492 2.496L156 84l-2 1c-1.333-10.558-1.333-10.558 0-15Z" fill="#B6B6B6"/><path d="M161 58c-.25 1.875-.25 1.875-1 4-1.938 1.125-1.938 1.125-4 2l-2 2-2-5h3v-3c3-1 3-1 6 0Z" fill="#D5D5D5"/><path d="M196 230h10v4h-11l3-1v-2l-2-1Z" fill="#93430E"/><path d="m116 71-3 1v3l2 1-3 1a89.47 89.47 0 0 0-2 4l-2 1v-3h2l1-5-4 1v-2c3.135-1.858 5.375-2.201 9-2Z" fill="#D5CD9E"/><path d="m74 63 4 2v7l-5-1c-.042-2.333-.04-4.667 0-7l1-1Z" fill="#D9D9D9"/><path d="M47 57h1v16l-3 1a590.393 590.393 0 0 1-.125-6.25l-.07-3.516c.185-3.062.587-4.676 2.195-7.234Z" fill="#D49D41"/><path d="M154 60h-2l2 6-4 1v-2l-5-1c1-3 1-3 3.375-4.25C151 59 151 59 154 60Z" fill="#888"/><path d="M71 54h5l-2 1c-.652 2.025-.652 2.025-1 4h-2v3l-2 1c-1.134 2.017-1.134 2.017-2 4-.55-5.635 1.05-8.39 4-13Z" fill="#D0D0D0"/><path d="m106 143 3 1v5l4 1-1 2h-2l-1 3c-2.863-2.863-2.994-4.659-3.063-8.688L106 143Z" fill="#C8AA5F"/><path d="m93 105 1 2h6v2l-1.938.75c-2.25 1.066-2.25 1.066-2.812 3.375L95 115l2 1-1 3h-2l-1-14Z" fill="#EDDB90"/><path d="M92 101c5.22-.18 9.073.03 14 2-2.75 3.875-2.75 3.875-5 5v-4h-9v-3Z" fill="#030304"/><path d="m146 87 1 2 3 1v3a812.35 812.35 0 0 1-8.813-.313l-2.525-.068-2.432-.107-2.237-.08C131.528 91.898 130.599 90.9 129 89h4v2l12-1 1-3Z" fill="#757575"/><path d="M106 30c1.625-.027 3.25-.046 4.875-.063l2.742-.035C116 30 116 30 118 31c.414 2.723.414 2.723.625 6.063l.227 3.347L119 43l-2 1c-1.886-3.882-1.897-5.852-1-10-3.006-3.006-5.824-2.596-10-3v-1Z" fill="#101010"/><path d="M202 203h1v5l2 1h-3v3h3v3h-3l-1 5h-1v-12h2v-5Z" fill="#E6B84B"/><path d="m83 144 12 1-1 7h-1v-5l-10 1v-4Z" fill="#292418"/><path d="m86 123 7 1-1 3-2-1a75.68 75.68 0 0 0-5 1l4 4-5-2-1 4v-8h3v-2Z" fill="#292825"/><path d="M113 101c6.625-.125 6.625-.125 10 1 .75 2 .75 2 1 4-1 1-1 1-3.563 1.063L118 107l-1-2 1-3h-5v-1Z" fill="#D9C274"/><path d="M99 74c2.401 3.602 2.438 6.509 2.625 10.688l.117 2.126c.094 1.729.177 3.457.258 5.186h-3c-1.333-12.67-1.333-12.67 0-18Z" fill="#242420"/><path d="m73 75 5 1-1 12h-1v-6h-3v-7Z" fill="#929392"/><path d="M139 32h4v11h-2v-5l-3-1 1-5Z" fill="#F3F3F3"/><path d="M143 150v3l2 1-1 3-8 1 4-1v-3l-3-1c1.534-3.068 2.61-3 6-3Z" fill="#D5B86B"/><path d="M71 112h1c.711 7.18 1.258 13.87 0 21h-1c-1.463-6.584-2.153-14.542 0-21Z" fill="#14140F"/><path d="m189 213 5 1v3l4 1h-5v10h-1l-.148-2.012c-.563-6.7-.563-6.7-2.852-12.988Z" fill="#4E4236"/><path d="M64 197h3c.25 5.625.25 5.625-2 9-.633 2.113-.633 2.113-1 4h-2c.142-1.417.289-2.834.438-4.25.08-.789.162-1.578.246-2.39.292-2.184.737-4.237 1.316-6.36Z" fill="#BDBDBD"/><path d="m96 136-1 6-2.5-1.438c-4.028-1.798-7.132-2.185-11.5-2.562v-1c1.562-.17 3.125-.336 4.688-.5l2.636-.281c2.573-.21 5.096-.256 7.676-.219Z" fill="#A89053"/><path d="M86 197c2.375.313 2.375.313 5 1l2 3-2 4h-2v-3h-2l-1-5Z" fill="#E9E9E9"/><path d="m144 99 3 2c.188 3.625.188 3.625 0 7l-6-1v-4l2-1 1-3Z" fill="#3D3C39"/><path d="m127 92 2 1 .625 1.938c1.699 2.548 2.593 2.6 5.5 3.312L139 99v1h-8l-1 4-2-1c-.414-2.504-.414-2.504-.625-5.563l-.227-3.066L127 92Z" fill="#83817A"/><path d="M151.813 57.188 155 58v3l-1.625-.688c-3.408-.448-5.391 1.131-8.375 2.688l-2-1c4.062-5.046 4.062-5.046 8.813-4.813Z" fill="#BAB9BA"/><path d="M197.625 31.875 200 32c.054 1.791.093 3.583.125 5.375l.07 3.023C200 43 200 43 198 45V34h-5c2-2 2-2 4.625-2.125Z" fill="#AF6A12"/><path d="M116 141c2 2 2 2 2.195 3.945L118 151l-2 1c-2-3-2-3-1.688-6.625C115 142 115 142 116 141Z" fill="#292721"/><path d="M176 134h1c.745 6.373 1.103 12.583 1 19h-1v-6l-4-2 2-3c.451-2.05.451-2.05.625-4.188L176 134Z" fill="#BAA269"/><path d="m172 96 4 1-1 3 6 1v1h-8l-1 2c-1.125-2.313-1.125-2.313-2-5l2-3Z" fill="#E3C878"/><path d="M160 62v2l10 1v1l-13 1-1-4c2-1 2-1 4-1Z" fill="#20201E"/><path d="M45 20h9l-1 9h-3v-7l-5-1v-1Z" fill="#EDB74A"/><path d="M81 195h2v4h2v6l-3-1v-4h-2l1-5Z" fill="#E9E9E9"/><path d="M169 179h1v11l-1-2c-2.017-1.134-2.017-1.134-4-2v-3l4-1v-3Z" fill="#3F3F3F"/><path d="M74 138h15c-5 4-5 4-7.457 3.734l-2.356-.984-2.394-.953L75 139l-1 4v-5Z" fill="#C2A65C"/><path d="M104 109h3c.082 1.416.14 2.833.188 4.25l.105 2.39C107 118 107 118 104 122v-13Z" fill="#E3D38D"/><path d="M118 112h11v2c-5.75 3-5.75 3-8 3v-2l-2-1-1-2Z" fill="#D3BF7B"/><path d="M124 99c3.795 1.265 5.439 2.954 8 6 .313 2.813.313 2.813 0 5-3.875-2.625-3.875-2.625-5-6l-3-1v-4Z" fill="#DED9CA"/><path d="m111 102 4 2h-5v2l2 1c-2.375 1.563-2.375 1.563-5 3l-2-1c1.393-3.367 2.979-4.986 6-7Z" fill="#D2BE7A"/><path d="M91 74h7c.847 5.08 1.09 9.848 1 15h-1l-.148-1.934-.227-2.504-.21-2.496L97 80l-2-1v-3l-4-2Z" fill="#BAB48A"/><path d="M166 72c1.5 1.063 1.5 1.063 3 3 .188 3.688.188 3.688 0 7l-1-2h-2v-2h-2c.875-4.875.875-4.875 2-6Z" fill="#EDD583"/><path d="m44 230 8 1v2l4 1H44v-4Z" fill="#772709"/><path d="M104 140v6l-6-1-1 2 1-6c2.076-.553 3.844-1 6-1Z" fill="#E5C26D"/><path d="M164 104h1l1 14-3-1c-1.128-3.383-.818-4.768-.063-8.188l.59-2.73L164 104Z" fill="#0F0E0D"/><path d="m122 65 4 2-1 4-6 1 3-7Z" fill="#969696"/><path d="m78 56 3 1-1 7-4-1v-6l2-1Z" fill="#9A9A9A"/><path d="M87 55c2.55 1.275 2.93 2.403 4 5v3h-2v2h-7v-1l5-1v-8Z" fill="#8B8B8B"/><path d="m165 204-1 3c-4.161.082-7.947-.018-12-1v-1a689.91 689.91 0 0 1 5.375-1.063l3.023-.597C163 203 163 203 165 204Z" fill="#1D1D1D"/><path d="M167 190c1.746 2.62 2.387 4.038 3 7h-4c-3-3.214-3-3.214-3-6l4-1Z" fill="#494949"/><path d="M164 171h3c2 3 2 3 2 7l-5 1v-8Z" fill="#888"/><path d="m143 85 8 1 1 9-2 1-.375-2.938L149 90l-2-1v-2l-4-1v-1Z" fill="#323234"/><path d="m89 83-1 3v-2c-1.459.31-2.917.622-4.375.938l-2.46.527C78.97 85.923 78.97 85.923 77 87v-4c4.256-1.16 7.684-.762 12 0Z" fill="#2A2923"/><path d="M90 75h6l-1 5h-3l-2 3v-8Z" fill="#E7DDA8"/><path d="M148 69a99.984 99.984 0 0 1 5 0c1 1 1 1 1.063 3.563L154 75l-6-2v-4Z" fill="#2B2B2B"/><path d="M118 32h3c.125 7.75.125 7.75-1 10h-2V32Z" fill="#EEE"/><path d="M126 32h3v10h-2c-1.607-3.215-1.057-6.436-1-10Z" fill="#EFEFEF"/><path d="M45 215h3l1 3h-2v2h-2v10h-1c-.027-2.125-.046-4.25-.063-6.375l-.035-3.586C44 217 44 217 45 215Z" fill="#B77514"/><path d="M136 178c1.46.45 2.918.91 4.375 1.375l2.46.773C145 181 145 181 147 183a763.515 763.515 0 0 1-4.375-.438l-2.46-.246C138 182 138 182 136 181v-3Z" fill="#BEBEBE"/><path d="M103 150h2v4l-6 1-1 4v-8c3.875.875 3.875.875 5 2v-3Z" fill="#E2BF6A"/><path d="m93 147 1 7h-6l2-1c-.833-2.167-.833-2.167-3-3l1-2c1.682-.526 3.227-1 5-1Z" fill="#DBB866"/><path d="M80 87h7v5h-6l-1-5Z" fill="#F4E6A7"/><path d="m134 180 5 2v4h-5v-6Z" fill="#212121"/><path d="M75 139c3.52.587 5.713 1.356 9 3l-9 2v-5Z" fill="#E4C56B"/><path d="M139 121c2 3 2 3 2 5h-7l-1 4-1-7h3v2l4-4Z" fill="#DACA90"/><path d="M80 113c1.458-.054 2.916-.093 4.375-.125l2.46-.07C89 113 89 113 91 115l-11 1v-3Z" fill="#090807"/><path d="M92 107h1c.37 7.508.37 7.508-1.5 10l-1.5 1v-2l-4-1 3-1-3-2h6v-5Z" fill="#2A2B24"/><path d="M155 186c2.5 2.174 3.436 3.73 4 7l-5-1c-.625-1.875-.625-1.875-1-4l2-2Z" fill="#E6E6E6"/><path d="M168 141h1l1 11h-4c.6-3.683 1.248-7.345 2-11Z" fill="#8B887C"/><path d="m168 115 2 1v3l4 2v-6h1v7h-7v-7Z" fill="#C9B36C"/><path d="M159 115c5.875 1.875 5.875 1.875 7 3 .04 1.666.043 3.334 0 5-2-1.375-2-1.375-4-3v-2l-3-1v-2Z" fill="#656566"/><path d="M91 54c2.081 1.88 3.739 3.443 4.938 6 .087 2.806-1.116 3.96-2.938 6l-.438-3.188A142.46 142.46 0 0 0 91 54Z" fill="#1F1F1F"/><path d="M198 222h5l-1 7-3-1-1-6Z" fill="#CDB565"/><path d="M48 209h2v9l-2-1v-2h-3l1-3 2-1v-2Z" fill="#E9B94E"/><path d="M147 165c5.75-.125 5.75-.125 8 1v2l-9 1 1-4Z" fill="#5E5E5E"/><path d="m115 150 1 2 2 1-1.5 1.375c-1.726 1.501-1.726 1.501-1.5 3.625l-4-2c1.75-4.875 1.75-4.875 4-6Z" fill="#D3AF5A"/><path d="M132 127h1v9l-4-2c.75-4.75.75-4.75 3-7Z" fill="#171818"/><path d="M127 111v1l-10 1-2-3c8.571-1.429 8.571-1.429 12 1Z" fill="#29282D"/><path d="m141 79 6 1v3h-8l2-4Z" fill="#DCDCDC"/><path d="M142 75c3.625-.188 3.625-.188 7 0v2l-5 1 1 2-2.375.438c-2.59.44-2.59.44-4.625 1.562a56.54 56.54 0 0 1 4-7Z" fill="#9F9F9F"/><path d="m123 55 2 1-1.438 1.75c-1.51 2.176-2.102 3.676-2.562 6.25h-2l-1 3c.415-5.288 1.352-8.117 5-12Z" fill="#C7C7C7"/><path d="M98 192h5v2h2v3c-3.75 1.125-3.75 1.125-6 0-.625-2.563-.625-2.563-1-5Z" fill="#C4C4C4"/><path d="M91 139.25c2 .75 2 .75 4 3.75h-7l-1-3c2-1 2-1 4-.75Z" fill="#DFBA63"/><path d="m151 95 5 2v8h-1v-7h-9l4-2 1-1Z" fill="#0B0B0B"/><path d="m71 84 1 2 4-1v4l-10-1v-1h5v-3Z" fill="#403F40"/><path d="M120 77h3l1 7-4-1v-6Z" fill="#DBDBDB"/><path d="M81 65h2v4l3 1v1h-5l-2-4 2-2Z" fill="#D9D9D9"/><path d="M135 51c1.792-.027 3.583-.046 5.375-.063l3.023-.035C146 51 146 51 148 52v3l-2.563-.938C141.95 52.986 138.619 52.434 135 52v-1Z" fill="#F4F4F4"/><path d="m148 36 1 2h3v2h-3v3h-3c.875-5.875.875-5.875 2-7Z" fill="#F6F6F6"/><path d="M125 199c2.83 3.996 1.762 7.427 1 12h-2a920.276 920.276 0 0 1-.063-5.438l-.035-3.058C124 200 124 200 125 199Z" fill="#BFC0BF"/><path d="M73 195h5v6h-4l-1-6Z" fill="#D1D1D1"/><path d="m127 182 2 3c-.875 3.688-.875 3.688-2 7l-4 1 1-3h2l1-8Z" fill="#252525"/><path d="M150 175h4l1 5-6-1 1-4Z" fill="#545454"/><path d="M83 159h2c.043 1.666.04 3.334 0 5-1 1-1 1-4.563 1.063L77 165l2.438-1.875c2.6-1.867 2.6-1.867 3.562-4.125Z" fill="#BDA867"/><path d="M134 116h4v2l-2 2-1 3h-2c-.043-2-.04-4 0-6l1-1Z" fill="#F0E197"/><path d="M117 96c3 3.875 3 3.875 3 5-7.429.286-7.429.286-11-2h7l1-3Z" fill="#070706"/><path d="M119 89c2.245 2.245 2.37 2.96 2.75 6l.297 2.125C122 99 122 99 120 101c-1-1-1-1-1.098-3.504l.035-3.058.028-3.067L119 89Z" fill="#ECECE9"/><path d="M140 68v3l3 1-10-1c1.735-3.47 3.096-3 7-3Z" fill="#989898"/><path d="m156 67 2 1v7h-2l-2-7 2-1Z" fill="#E7E7E6"/><path d="M69 183h1v12h-3l2-12Z" fill="#020202"/><path d="m91 176 3 2v4h-2v6h-1v-12Z" fill="#C2C2C2"/><path d="M101 88h4c1 3 1 3 .063 5.188L104 95c-3-3.625-3-3.625-3-7Z" fill="#E4DAA1"/><path d="M98 72v1h-7l-1 3-5-1c1-2 1-2 2.563-2.625 3.501-.539 6.895-.434 10.437-.375Z" fill="#222221"/><path d="M128 65h3v3l-2 1a78.037 78.037 0 0 0-2 5h-1c.875-7.875.875-7.875 2-9Z" fill="#EAEAEA"/><path d="m142 167 2 1v5h-3v-2h-2v-2l3-2Z" fill="#656565"/><path d="M147 155a158.87 158.87 0 0 1 5 3v1l-8 1c1.875-3.875 1.875-3.875 3-5Z" fill="#868686"/><path d="M107 155c2.884 1.293 4.872 2.66 7 5h-7v-5Z" fill="#12120C"/><path d="M124 127h2l1 5-10-1v-1l2.375-.375c2.766-.416 2.766-.416 4.625-2.625Z" fill="#1C1B15"/><path d="M171 122c1.75 1.313 1.75 1.313 3 3v2h-6l2-1v-2l-3-1c1.813-.688 1.813-.688 4-1Z" fill="#636567"/><path d="m113 121 8 1-2 4c-2.962-.613-4.38-1.254-7-3l1-2Z" fill="#EEDF99"/><path d="M83 105h10l-1 5-1-3-8-1v-1Z" fill="#AEA36E"/><path d="m112 106 2 4-3 2-3-3 4-3Z" fill="#DFCC84"/><path d="M68 79h1l1 8h-4c-.2-3.716-.152-4.772 2-8Z" fill="#686868"/><path d="M80 72c2.313-.25 2.313-.25 5 0 1.813 2 1.813 2 3 4h-7l-1-4Z" fill="#8A8A86"/><path d="M169 67h3l1 5h-3l-1 2a128.624 128.624 0 0 1-1-6l1-1Z" fill="#EDD889"/><path d="M139 67h6l-1 4h-4l-1-4Z" fill="#252525"/><path d="m198 24 1 3h-2v3l3 1h-5v-6l3-1Z" fill="#EDCB76"/><path d="m142 163 4 1-1 3c-3.063 1.188-3.063 1.188-6 2l3-6Z" fill="#565656"/><path d="m151 161 5 3 1-3 1 5-7-1v-4Z" fill="#A8A8A8"/><path d="M163 159c2.063.438 2.063.438 4 1v7c-2-2-2-2-3-5l-2-2 1-1Z" fill="#9F9F9F"/><path d="M147 147h4v3h-7l-1 3v-4h4v-2Z" fill="#DCD7CD"/><path d="M118 132h7v4l-7-2v-2Z" fill="#BBAE80"/><path d="m90 125 3 2v4c-1.938-.813-1.938-.813-4-2l-1-3 2-1Z" fill="#151514"/><path d="m114 95 3 1-1 3h-7v-2h5v-2Z" fill="#D0BF83"/><path d="m116 91 4 1-1 7c-2-3-2-3-2-5h-2l1-3Z" fill="#D1C692"/><path d="M120 84c3.775 1.09 6.47 1.908 9 5l-3 1c-3.188-2.375-3.188-2.375-6-5v-1Z" fill="#585858"/><path d="M148 85c-2.76 1.804-3.89 2.013-7.25 1.625L138 86c2.317-4.634 6.114-2.468 10-1Z" fill="gray"/><path d="M80 201h2l1 3 2 2c-3.133 1.044-3.99.934-7 0l2-5Z" fill="#414141"/><path d="M90 188h1c1 7.625 1 7.625 1 11l-4-2v-2h2v-7Z" fill="#B5B5B5"/><path d="m146 164 2 1v2h-2v6h-2c-.688-2.25-.688-2.25-1-5 1.438-2.313 1.438-2.313 3-4Z" fill="#777"/><path d="M134 147h1v11l-4-1 2-3c.394-2.324.735-4.658 1-7Z" fill="#1B1B2A"/><path d="M158 129v6l-2-4h-5l-1 2v-3c5.75-1 5.75-1 8-1Z" fill="#E1D29B"/><path d="M120 118h4l1 3c-1 1-1 1-3.066 1.098l-2.496-.035-2.504-.028L115 122v-1l6-1-1-2Z" fill="#B6AC7C"/><path d="M91 61h2c-.75 4.75-.75 4.75-3 7v-2l-3-1h2v-2h2v-2Z" fill="#BBB"/><path d="m152 62 2 4-4 1v-2l-5-1v-1l7-1Z" fill="#9F9F9F"/><path d="M158 61v2c-2 1.625-2 1.625-4 3l-2-5c3-1 3-1 6 0Z" fill="#EAEAEA"/><path d="M113 39h2l2 5-5-1 1-4Z" fill="#D4D4D4"/><path d="M149 35h4l2 4-3 1v-2h-3v-3Z" fill="#959595"/><path d="m129 198 2 1c-.547 3.375-1.055 5.082-3 8-.81-2.915-1.218-4.461-.063-7.313L129 198Z" fill="#252525"/><path d="m129 105-2 6-4-2c3.75-4 3.75-4 6-4Z" fill="#DDC781"/><path d="M84 77h3v4l-4 1-1-2 2-3Z" fill="#F0E3A5"/><path d="M125 70c.826 2.892 1 4.887 1 8-2.13-1.065-3.366-2.292-5-4l4-4Z" fill="#D6D6D6"/><path d="M132 36c2 2 2 2 2.125 4.625L134 43h-3l1-7Z" fill="#F4F4F4"/><path d="M156 34v4l-3-1v-2l-4-1c3.01-.934 3.867-1.044 7 0Z" fill="#E1E1E1"/></svg>
