<?xml version="1.0" encoding="UTF-8"?>
<svg version="1.1" xmlns="http://www.w3.org/2000/svg" width="64" height="64">
<path d="M0 0 C8.24513927 6.04462434 12.65175488 12.39920671 14.62109375 22.48828125 C15.81540916 31.72237841 13.14780128 40.11712655 7.99609375 47.80078125 C2.97706075 53.98880421 -4.58686035 58.09684448 -12.37890625 59.48828125 C-21.53440216 60.34320871 -29.60212083 58.79719166 -37.12890625 53.36328125 C-43.37535091 48.12290113 -48.02238503 41.62740855 -49.37890625 33.48828125 C-50.30436938 22.48394623 -48.79154892 14.32324907 -41.75390625 5.67578125 C-31.03543111 -5.66492746 -13.32698745 -8.4688738 0 0 Z " fill="#3B6FEF" transform="translate(49.37890625,4.51171875)"/>
<path d="M0 0 C0.71671875 -0.020625 1.4334375 -0.04125 2.171875 -0.0625 C8.17595088 -0.10664762 11.18645108 1.40953745 15.5625 5.3125 C18.02299372 9.59558165 18.16713833 13.42538995 17.25 18.25 C15.55375149 21.36709136 13.47141825 23.63929088 10.25 25.25 C8.70976004 25.31950541 7.16665012 25.33452357 5.625 25.3125 C4.39910156 25.29896484 4.39910156 25.29896484 3.1484375 25.28515625 C2.52195312 25.27355469 1.89546875 25.26195313 1.25 25.25 C1.11722656 26.10464844 0.98445313 26.95929687 0.84765625 27.83984375 C0.67105469 28.94457031 0.49445312 30.04929687 0.3125 31.1875 C0.05146484 32.84072266 0.05146484 32.84072266 -0.21484375 34.52734375 C-0.75 37.25 -0.75 37.25 -1.75 38.25 C-3.58115883 38.34851171 -5.41619933 38.37972629 -7.25 38.375 C-8.2503125 38.37757812 -9.250625 38.38015625 -10.28125 38.3828125 C-12.75 38.25 -12.75 38.25 -13.75 37.25 C-13.6851364 34.99746416 -13.54747675 32.74685931 -13.375 30.5 C-13.28476562 29.26765625 -13.19453125 28.0353125 -13.1015625 26.765625 C-12.81074821 23.8574821 -12.39115865 21.09717909 -11.75 18.25 C-13.4 17.92 -15.05 17.59 -16.75 17.25 C-16.42 16.59 -16.09 15.93 -15.75 15.25 C-14.1 15.25 -12.45 15.25 -10.75 15.25 C-10.75 13.93 -10.75 12.61 -10.75 11.25 C-12.4 10.92 -14.05 10.59 -15.75 10.25 C-15.42 9.26 -15.09 8.27 -14.75 7.25 C-13.1 7.25 -11.45 7.25 -9.75 7.25 C-9.605625 6.280625 -9.46125 5.31125 -9.3125 4.3125 C-8.2818035 -1.29906985 -4.92118271 0.03465622 0 0 Z " fill="#FDFDFE" transform="translate(31.75,12.75)"/>
<path d="M0 0 C13.23150435 -0.89874369 13.23150435 -0.89874369 17.14453125 1.08984375 C19.65082153 3.81281618 19.99999008 5.9994247 20.0625 9.625 C18.93025993 13.22152729 17.92814395 14.6929775 15 17 C11.58443314 18.70778343 7.77120917 18.62287908 4 19 C3.34 22.63 2.68 26.26 2 30 C0.02 30 -1.96 30 -4 30 C-3.85890014 27.89551062 -3.71195825 25.7914123 -3.5625 23.6875 C-3.48128906 22.51574219 -3.40007813 21.34398437 -3.31640625 20.13671875 C-3 17 -3 17 -2 14 C-0.94039062 13.95101563 0.11921875 13.90203125 1.2109375 13.8515625 C2.59898497 13.77653291 3.98700451 13.70098515 5.375 13.625 C6.42300781 13.57859375 6.42300781 13.57859375 7.4921875 13.53125 C11.70185827 13.40500502 11.70185827 13.40500502 15 11 C14.83557723 7.93008319 14.83557723 7.93008319 14 5 C11.29816945 3.64908472 8.88191794 3.66141942 5.875 3.4375 C4.23144531 3.31181641 4.23144531 3.31181641 2.5546875 3.18359375 C1.71164063 3.12300781 0.86859375 3.06242187 0 3 C0 2.01 0 1.02 0 0 Z " fill="#3C6FEF" transform="translate(26,17)"/>
<path d="M0 0 C4.29 0 8.58 0 13 0 C12.67 1.32 12.34 2.64 12 4 C8.04 4 4.08 4 0 4 C0 2.68 0 1.36 0 0 Z " fill="#3B6FEF" transform="translate(25,24)"/>
</svg>
