<?xml version="1.0" encoding="UTF-8"?>
<svg version="1.1" xmlns="http://www.w3.org/2000/svg" width="250" height="250">
<path d="M0 0 C24.8044231 21.27415226 40.32226215 50.12921176 44.28369141 82.57275391 C46.63952184 118.31629828 38.12953205 150.71417395 14.88916016 178.42822266 C12.73228595 180.85700264 10.52655067 183.22349715 8.28369141 185.57275391 C7.75904297 186.16056641 7.23439453 186.74837891 6.69384766 187.35400391 C-11.21072179 206.67089307 -40.48295129 220.34931509 -66.66943359 221.7902832 C-71.20596083 221.93837058 -75.74020771 221.95930281 -80.27880859 221.94775391 C-81.08000122 221.94721008 -81.88119385 221.94666626 -82.70666504 221.94610596 C-94.5017257 221.9092298 -105.45355589 221.36220091 -116.71630859 217.57275391 C-117.38919922 217.35312988 -118.06208984 217.13350586 -118.75537109 216.90722656 C-123.5024187 215.33710056 -128.12193868 213.54296728 -132.71630859 211.57275391 C-133.88677734 211.07130859 -135.05724609 210.56986328 -136.26318359 210.05322266 C-164.59807811 196.87941989 -187.47544969 171.12860304 -198.50537109 142.01806641 C-199.04444115 140.49828626 -199.57344471 138.97489019 -200.09130859 137.44775391 C-200.31786133 136.78098633 -200.54441406 136.11421875 -200.77783203 135.42724609 C-204.57212807 123.45096432 -206.22158251 111.71568224 -206.10742188 99.22094727 C-206.09133738 97.13897995 -206.10738496 95.05896017 -206.12646484 92.97705078 C-206.14707191 80.39306428 -204.46879526 67.91634073 -200.02880859 56.07275391 C-199.77389648 55.37754639 -199.51898438 54.68233887 -199.25634766 53.96606445 C-187.39986155 22.59312229 -164.16190212 -4.16827166 -133.34033203 -18.08691406 C-126.61233154 -20.99958198 -119.77036569 -23.42333601 -112.71630859 -25.42724609 C-111.02828125 -25.90871094 -111.02828125 -25.90871094 -109.30615234 -26.39990234 C-71.29881252 -35.29171743 -29.78649898 -24.76982547 0 0 Z " fill="#3B6FEE" transform="translate(205.71630859375,28.42724609375)"/>
<path d="M0 0 C1.0726712 -0.01606293 2.14534241 -0.03212585 3.2505188 -0.04867554 C8.22071771 -0.0932783 13.19077964 -0.13429315 18.16113281 -0.15722656 C20.76799519 -0.17367059 23.37481469 -0.20080418 25.98144531 -0.23925781 C44.24423903 -0.50724573 60.07470267 -0.65197473 74.98388672 11.19287109 C75.65677734 11.66982422 76.32966797 12.14677734 77.02294922 12.63818359 C86.20930125 19.69642319 92.29414792 31.85685643 93.98388672 43.19287109 C95.439149 56.65865243 91.17919845 70.62127542 83.27294922 81.56005859 C74.72283313 91.9248932 62.35797506 98.80841773 48.98388672 100.19287109 C45.33663564 100.30277474 41.69483997 100.28779071 38.04638672 100.25537109 C37.07636719 100.25085938 36.10634766 100.24634766 35.10693359 100.24169922 C32.73251912 100.2300026 30.35823651 100.21361195 27.98388672 100.19287109 C27.90348145 100.76094482 27.82307617 101.32901855 27.74023438 101.91430664 C26.82937609 108.34163972 25.91059063 114.76780328 24.98388672 121.19287109 C24.88285645 121.89428223 24.78182617 122.59569336 24.67773438 123.31835938 C24.15071701 126.94988339 23.5829648 130.57258026 22.98388672 134.19287109 C22.85498047 135.06556641 22.72607422 135.93826172 22.59326172 136.83740234 C21.88474831 140.89823382 21.47406991 142.7026879 18.48388672 145.69287109 C14.09870957 148.32397739 10.68416507 148.38498552 5.65185547 148.43115234 C4.82309402 148.43922409 3.99433258 148.44729584 3.14045715 148.45561218 C1.38443087 148.4694533 -0.37162232 148.48017534 -2.12768555 148.48803711 C-4.80781337 148.5052376 -7.48670356 148.54912035 -10.16650391 148.59326172 C-11.87287505 148.60338989 -13.57925667 148.6119056 -15.28564453 148.61865234 C-16.08476761 148.63616043 -16.88389069 148.65366852 -17.70722961 148.67170715 C-21.5727562 148.65670778 -23.56197869 148.46911764 -26.93676758 146.41625977 C-29.80981685 143.34418513 -30.99364108 141.66557498 -31.05859375 137.40893555 C-30.32607939 129.68775772 -29.36453444 122.03917242 -28.14111328 114.38037109 C-27.96402832 113.24962158 -27.78694336 112.11887207 -27.60449219 110.95385742 C-26.42488273 103.50976656 -25.1149495 96.10239229 -23.67626953 88.70458984 C-22.64574156 83.22266886 -21.81941937 77.71205647 -21.01611328 72.19287109 C-22.05251953 72.25087891 -23.08892578 72.30888672 -24.15673828 72.36865234 C-25.52648484 72.41556147 -26.8962802 72.46106041 -28.26611328 72.50537109 C-28.94802734 72.54726562 -29.62994141 72.58916016 -30.33251953 72.63232422 C-34.13607824 72.7246436 -35.66752113 72.52370059 -38.46923828 69.86474609 C-40.35379912 66.60959556 -40.64631428 64.89530195 -40.01611328 61.19287109 C-38.56298828 59.02490234 -38.56298828 59.02490234 -36.01611328 57.19287109 C-32.91812523 56.70318185 -29.89253657 56.81586015 -26.76611328 56.94287109 C-25.92564453 56.96091797 -25.08517578 56.97896484 -24.21923828 56.99755859 C-22.15103934 57.04456312 -20.08342887 57.11630385 -18.01611328 57.19287109 C-17.68611328 52.57287109 -17.35611328 47.95287109 -17.01611328 43.19287109 C-19.22298828 43.29599609 -21.42986328 43.39912109 -23.70361328 43.50537109 C-31.77120558 43.48903994 -31.77120558 43.48903994 -34.45361328 41.13037109 C-36.01611328 38.19287109 -36.01611328 38.19287109 -36.07861328 34.56787109 C-35.01611328 31.19287109 -35.01611328 31.19287109 -33.52783203 29.49365234 C-29.68436401 27.50317823 -26.02226283 27.87569154 -21.76611328 28.00537109 C-20.50541016 28.02567383 -20.50541016 28.02567383 -19.21923828 28.04638672 C-17.1512539 28.08163645 -15.08360057 28.13544089 -13.01611328 28.19287109 C-13.03697998 27.54825928 -13.05784668 26.90364746 -13.0793457 26.23950195 C-13.51653955 9.98383995 -13.51653955 9.98383995 -9.80517578 4.35693359 C-8.45361328 3.00537109 -8.45361328 3.00537109 -6.01611328 1.19287109 C-4.34350198 -0.47974021 -2.29806439 0.03119589 0 0 Z " fill="#F8FAFE" transform="translate(100.01611328125,50.80712890625)"/>
<path d="M0 0 C0.86858139 -0.00960754 1.73716278 -0.01921509 2.63206482 -0.02911377 C3.57985306 -0.03336365 4.5276413 -0.03761353 5.50415039 -0.04199219 C6.47784073 -0.04769226 7.45153107 -0.05339233 8.45472717 -0.05926514 C10.52530831 -0.06873746 12.59590467 -0.07525793 14.66650391 -0.07910156 C17.80732476 -0.08873081 20.94746984 -0.11970077 24.08813477 -0.15136719 C26.10180276 -0.15790478 28.11547544 -0.16315227 30.12915039 -0.16699219 C31.52350563 -0.18551239 31.52350563 -0.18551239 32.94602966 -0.20440674 C45.60555908 -0.16204935 55.78972799 4.44209099 64.91430664 13.16113281 C71.90443998 22.31995019 72.81068534 31.88073075 71.91430664 43.16113281 C69.97323729 53.38757202 63.51812881 61.2541772 55.03930664 67.09863281 C44.69272735 72.68602803 33.79723398 72.59444853 22.32641602 72.60058594 C20.59294922 72.62862305 20.59294922 72.62862305 18.82446289 72.65722656 C17.78427002 72.65907959 16.74407715 72.66093262 15.67236328 72.6628418 C12.21740673 73.28703993 11.06239952 74.43832951 8.91430664 77.16113281 C7.91321261 79.94935129 7.91321261 79.94935129 7.41430664 83.22363281 C7.30175537 83.84052979 7.1892041 84.45742676 7.07324219 85.09301758 C5.07983194 96.40053416 3.54018929 107.79646069 1.91430664 119.16113281 C-6.00569336 119.16113281 -13.92569336 119.16113281 -22.08569336 119.16113281 C-21.67132971 109.21640527 -20.47830123 99.66788709 -18.72143555 89.87011719 C-16.85645439 79.3465536 -15.49059404 68.75394914 -14.08569336 58.16113281 C-13.43138336 58.15970779 -12.77707336 58.15828278 -12.10293579 58.15681458 C-5.2561113 58.13703722 1.5898313 58.08259136 8.4362793 58.00854492 C10.98699605 57.98543299 13.53780732 57.9709853 16.08862305 57.96557617 C19.76809121 57.95623742 23.44608664 57.91513463 27.12524414 57.86816406 C28.81960098 57.87406303 28.81960098 57.87406303 30.54818726 57.88008118 C37.90132281 57.74638718 43.85725899 56.53742166 49.91430664 52.16113281 C55.27542602 45.6597996 56.60904165 39.46005832 55.91430664 31.16113281 C53.85658988 24.55477902 50.44619999 20.39391623 44.41625977 17.0546875 C39.36135423 14.59815962 34.61081366 14.55881237 29.07055664 14.55175781 C28.06085815 14.53522156 27.05115967 14.5186853 26.01086426 14.50164795 C22.81194851 14.4533823 19.61350743 14.43184429 16.41430664 14.41113281 C14.23459554 14.38295527 12.05490634 14.35302536 9.87524414 14.32128906 C4.55501721 14.24762947 -0.76507742 14.19586168 -6.08569336 14.16113281 C-5.94539917 12.01493021 -5.79831172 9.86917063 -5.64819336 7.72363281 C-5.56698242 6.52867188 -5.48577148 5.33371094 -5.40209961 4.10253906 C-4.93125592 -0.27456343 -4.05030399 0.03605494 0 0 Z " fill="#3E71EE" transform="translate(107.085693359375,64.8388671875)"/>
<path d="M0 0 C6.76265184 -0.09884695 13.52488358 -0.17145935 20.28808594 -0.21972656 C22.58894169 -0.23984688 24.88974629 -0.26714634 27.19042969 -0.30175781 C30.49687317 -0.35025612 33.80264085 -0.37296478 37.109375 -0.390625 C38.13867126 -0.41127014 39.16796753 -0.43191528 40.22845459 -0.45318604 C47.34313453 -0.4554235 47.34313453 -0.4554235 50.64941406 1.83691406 C52.50584391 4.81015493 52.57361472 6.55831166 52 10 C50.66308594 12.16308594 50.66308594 12.16308594 48 14 C44.29661854 14.56727114 40.62924594 14.46405209 36.890625 14.390625 C35.80867859 14.38496521 34.72673218 14.37930542 33.61199951 14.37347412 C30.15754893 14.35108999 26.70413689 14.30088791 23.25 14.25 C20.90756707 14.22993772 18.56511787 14.21168648 16.22265625 14.1953125 C10.48137089 14.1512182 4.74086151 14.08217485 -1 14 C-0.67 9.38 -0.34 4.76 0 0 Z " fill="#3C6FEE" transform="translate(98,94)"/>
</svg>
