<svg xmlns="http://www.w3.org/2000/svg" width="512" height="512" style="shape-rendering:geometricPrecision;text-rendering:geometricPrecision;image-rendering:optimizeQuality;fill-rule:evenodd;clip-rule:evenodd"><path style="opacity:.966" fill="#fdfdfd" d="M511.5 233.5v45c-10.335 86.552-52.335 152.719-126 198.5-33.335 19.057-69.002 30.557-107 34.5h-45c-40.262-4.087-77.595-16.754-112-38 60.034 1.743 120.034.91 180-2.5 88.252-15.921 145.419-66.754 171.5-152.5 16.153-70.045 1.487-132.711-44-188L378.5 82a484.327 484.327 0 0 0-41-33c-59.807-31.562-121.14-34.895-184-10C82.516 72.676 41.35 128.509 30 206.5c-2.309 28.166.358 55.832 8 83 16.837 39.032 39.67 74.032 68.5 105-18.822 2.829-36.488 8.829-53 18C3.514 345.07-11.32 270.403 9 188.5 36.833 96.667 96.667 36.833 188.5 9c93.927-22.27 176.261-.937 247 64 44.021 44.546 69.354 98.046 76 160.5Z"/><path style="opacity:.998" fill="#030202" d="M121.5 473.5c-26.424-16.088-49.09-36.421-68-61 16.512-9.171 34.178-15.171 53-18-28.83-30.968-51.663-65.968-68.5-105-7.642-27.168-10.309-54.834-8-83C41.35 128.509 82.516 72.676 153.5 39c62.86-24.895 124.193-21.562 184 10a484.327 484.327 0 0 1 41 33l50.5 48.5c45.487 55.289 60.153 117.955 44 188-26.081 85.746-83.248 136.579-171.5 152.5a2097.055 2097.055 0 0 1-180 2.5Z"/><path style="opacity:1" fill="#e91d78" d="M213.5 41.5c42.44-4.324 81.773 4.51 118 26.5-83.911-20.49-155.411.676-214.5 63.5-17.343 21.008-30.843 44.341-40.5 70a776.173 776.173 0 0 1-23.5-12c7.425-37.685 24.925-69.852 52.5-96.5 30.715-28.19 66.715-45.357 108-51.5Z"/><path style="opacity:1" fill="#fefefe" d="M261.5 78.5c80.496-.858 140.329 33.475 179.5 103 21.905 46.207 25.571 93.874 11 143-20.833 59.5-61 99.667-120.5 120.5-79.649 21.72-147.149 2.22-202.5-58.5-43.602-56.696-53.936-119.029-31-187 31.08-71.906 85.58-112.24 163.5-121Z"/><path style="opacity:1" fill="#e51b75" d="M48.5 211.5a233.682 233.682 0 0 1 22.5 11 208.307 208.307 0 0 1-3.5 26c-6.14-3.1-12.307-6.1-18.5-9-.5-9.327-.666-18.661-.5-28Z"/><path style="opacity:1" fill="#030303" d="M151.5 304.5a96.254 96.254 0 0 1-19-1c-7.5-24.332-15.5-48.499-24-72.5a81.224 81.224 0 0 1 22 .5c4.157 13.653 8.323 27.319 12.5 41l14-42a88.665 88.665 0 0 1 18.5-1 1023.96 1023.96 0 0 0 13.5 42 416.125 416.125 0 0 0 12.5-41c7.341-.166 14.674 0 22 .5a1351.267 1351.267 0 0 0-24 73.5h-19a625.177 625.177 0 0 0-14.5-42 625.177 625.177 0 0 0-14.5 42Z"/><path style="opacity:1" fill="#020202" d="M291.5 230.5v17h-39v11h35v16c-11.845-.328-23.512.005-35 1v11a380.934 380.934 0 0 0 39 1v16h-59v-73h59Z"/><path style="opacity:1" fill="#030303" d="M341.5 248.5a756.853 756.853 0 0 0-1 55h-19a756.853 756.853 0 0 0-1-55h-22v-18h65v18h-22Z"/><path style="opacity:1" fill="#020202" d="M372.5 230.5h20c-.327 9.182.007 18.182 1 27h26v-27h20v74h-20v-28h-26c-.993 8.818-1.327 17.818-1 27h-20v-73Z"/><path style="opacity:1" fill="#747474" d="M372.5 230.5c6.813-.991 13.813-1.325 21-1v28c-.993-8.818-1.327-17.818-1-27h-20Z"/><path style="opacity:1" fill="#767676" d="M419.5 230.5c6.813-.991 13.813-1.325 21-1 .331 25.172-.002 50.172-1 75v-74h-20Z"/><path style="opacity:1" fill="#333" d="M320.5 248.5a756.853 756.853 0 0 1 1 55h19a756.853 756.853 0 0 1 1-55v56h-21v-56Z"/><path style="opacity:1" fill="#e22176" d="M51.5 264.5a321.742 321.742 0 0 1 15.5 7 290.578 290.578 0 0 0 2 24 191.124 191.124 0 0 1 4 22c-11.06-16.117-18.227-33.783-21.5-53Z"/><path style="opacity:1" fill="#868686" d="M287.5 258.5c.989 5.475 1.322 11.142 1 17h-36c11.488-.995 23.155-1.328 35-1v-16Z"/><path style="opacity:1" fill="#515151" d="M291.5 230.5h-59v73h59v-16a380.934 380.934 0 0 1-39-1h40v18h-61v-75a900.97 900.97 0 0 1 60 1Z"/><path style="opacity:1" fill="#454545" d="M393.5 276.5v28c-7.187.325-14.187-.009-21-1h20c-.327-9.182.007-18.182 1-27Z"/><path style="opacity:1" fill="#adadad" d="M132.5 303.5a96.254 96.254 0 0 0 19 1c-2.982.665-6.148.998-9.5 1-3.576-.015-6.742-.682-9.5-2Z"/></svg>
